<svg width="73" height="65" viewBox="0 0 73 65" fill="none" xmlns="http://www.w3.org/2000/svg">
<path opacity="0.6" d="M29.2545 29.0896C26.6104 29.7981 22.4403 -3.79851 12.1472 2.87923C2.36092 9.22822 24.1146 30.4669 21.5962 31.1417C19.0779 31.8165 1.08691 35.0785 2.03693 43.3113C3.09793 52.5058 24.8293 41.3772 25.8202 42.3276C26.8111 43.2779 20.6699 59.3196 27.9293 61.7787C35.4499 64.3264 39.3763 46.3938 40.7722 46.0198C42.1681 45.6457 56.2964 69.5139 60.2511 60.8167C63.4652 53.7484 48.6522 43.9083 50.9046 43.3048C53.1571 42.7012 70.3123 39.5074 70.6923 30.3041C71.1565 19.0566 44.1417 34.2381 41.8428 32.6453C39.5439 31.0526 50.8369 10.2972 41.4739 8.10875C32.229 5.94796 31.8985 28.3812 29.2545 29.0896Z" stroke="white" stroke-width="4" stroke-linecap="round"/>
</svg>
