<svg width="117" height="56" viewBox="0 0 117 56" fill="none" xmlns="http://www.w3.org/2000/svg">
<path opacity="0.6" d="M114.507 10.1407C114.507 10.1407 109.367 23.8228 96.885 28.9219C84.1982 34.1048 64.1721 30.7311 62.7069 16.9797C61.9187 9.58229 64.6788 3.88258 71.8848 2.33541C79.0667 0.793437 84.7704 4.6901 87.7545 11.4753C94.1434 26.0023 77.4173 41.9296 62.0636 45.3337C46.679 48.7447 24.359 41.3604 24.1141 25.4607C23.9996 18.0242 27.3401 11.9023 34.5821 10.5329C41.6808 9.19057 47.625 12.9525 50.4518 19.6728C56.4827 34.0107 41.1354 51.4155 25.8358 53.2949C15.8461 54.5221 8.20222 51.3133 2.00009 43.2891" stroke="white" stroke-width="4" stroke-linecap="round"/>
</svg>
