<svg width="75" height="61" viewBox="0 0 75 61" fill="none" xmlns="http://www.w3.org/2000/svg">
<path d="M42.5561 46.2113C39.2587 46.6417 35.9775 46.9483 32.6605 47.1591L33.7258 46.4258C32.5691 48.8039 30.9616 50.9358 29.0472 52.6793C28.8074 52.8967 28.5731 53.1211 28.3283 53.3317L27.5786 53.9436C27.453 54.0446 27.3302 54.1495 27.2021 54.2468L26.8126 54.5309L26.0332 55.0982C24.9657 55.8076 23.8805 56.4889 22.7461 57.0683C20.153 58.4478 17.3946 59.459 14.6021 60.2658C14.0229 60.4331 13.4177 60.0993 13.2504 59.5201C13.1297 59.1022 13.2698 58.6708 13.5747 58.4001L13.5881 58.3886C14.7018 57.4033 15.8034 56.4057 16.7942 55.3206C17.8884 54.1463 18.9058 52.9063 19.7564 51.5864L20.0718 51.0903C20.1716 50.9229 20.2639 50.7527 20.3606 50.5843L20.5043 50.3311C20.5502 50.2462 20.5907 50.1596 20.6342 50.074C20.7175 49.9018 20.811 49.7318 20.8866 49.5584L21.1113 49.0385C21.1737 48.8647 21.2448 48.6906 21.3016 48.5179C21.3544 48.3459 21.4135 48.1722 21.4507 48.0068C21.4745 47.9212 21.4913 47.8414 21.5052 47.7646C21.513 47.7256 21.5222 47.6843 21.525 47.6553C21.5293 47.6264 21.5361 47.5764 21.5341 47.598L22.8589 48.785C21.5466 49.0079 20.2141 49.0964 18.8858 49.0468C17.558 48.9822 16.2439 48.7665 14.9621 48.4381L14.0082 48.1646C13.6949 48.0598 13.3852 47.9447 13.0737 47.8346C12.7592 47.7312 12.4603 47.5908 12.1561 47.4628L11.7013 47.2671C11.5486 47.2039 11.4051 47.1222 11.2567 47.0505C10.0656 46.4815 8.94525 45.7755 7.88962 44.9881C7.3537 44.6035 6.85958 44.1662 6.35859 43.7377L5.64334 43.0539L5.46544 42.882L5.29674 42.7007L4.95966 42.3379L4.62329 41.9743L4.30796 41.5916L3.99311 41.2083L3.83592 41.0165L3.68994 40.8155L3.10736 40.0105L2.57458 39.1694C1.89108 38.0304 1.31633 36.8206 0.877184 35.5543C0.448911 34.2839 0.174098 32.9563 0.0573512 31.6105L0.022869 31.1045C0.0134297 30.9358 -0.00562024 30.7674 0.00157715 30.5979L0.0138264 29.5819C0.0680878 28.907 0.113963 28.2284 0.253252 27.5639L0.343437 27.0633C0.372544 26.8962 0.425719 26.7349 0.466016 26.5704C0.556686 26.2443 0.631776 25.9126 0.73778 25.5917L1.07975 24.6367C1.13212 24.4765 1.20365 24.3209 1.27528 24.1653L1.48785 23.6982L1.70197 23.2316C1.77547 23.08 1.85784 22.9468 1.93539 22.8036L2.40903 21.9603C2.73073 21.4107 3.05185 20.8607 3.39317 20.32C4.07007 19.2363 4.78957 18.1722 5.56615 17.143C7.11481 15.083 8.91835 13.1781 10.9041 11.5251C11.8963 10.6943 12.9211 9.92968 13.9677 9.19726C15.0107 8.45746 16.0933 7.77478 17.1903 7.11785C20.3514 5.24599 23.7194 3.72039 27.2163 2.58383C28.9649 2.01634 30.7454 1.54594 32.5469 1.17638C34.3435 0.822545 36.1494 0.520726 37.9719 0.327612C41.6135 -0.061503 45.3024 -0.125276 48.9676 0.251774L49.6549 0.317883L50.34 0.411176C50.7962 0.476912 51.2543 0.528183 51.709 0.606486L53.0719 0.851272C53.2997 0.888532 53.5253 0.938347 53.7506 0.990554L54.4271 1.14281L55.1035 1.29548C55.3285 1.34828 55.5506 1.41511 55.7743 1.47436C56.2203 1.59889 56.6689 1.71347 57.1125 1.84695L58.4355 2.27762L58.7661 2.38556L59.0918 2.5094L59.7429 2.75763L60.3938 3.00631C60.6109 3.0889 60.8207 3.19089 61.0345 3.28235C61.4602 3.47365 61.8854 3.65097 62.3112 3.85473C62.7354 4.0777 63.168 4.28728 63.5838 4.5241C63.9905 4.77536 64.4082 5.0113 64.8043 5.27777C66.3954 6.33642 67.8373 7.59856 69.1076 9.01073C70.377 10.4241 71.4788 11.9875 72.3685 13.6815C73.2605 15.3722 73.9285 17.211 74.2159 19.1884C74.2336 19.31 74.2573 19.4378 74.2696 19.5543L74.3044 19.9018L74.372 20.5972C74.402 21.064 74.4431 21.5286 74.4534 21.9989C74.4919 22.9359 74.4806 23.8819 74.4082 24.8314C74.2682 26.7262 73.8915 28.6548 73.1007 30.4798C72.9087 30.9368 72.6768 31.3806 72.4334 31.818L72.0509 32.4467L71.6457 33.0496C71.0914 33.838 70.4869 34.5731 69.8499 35.2742C69.216 35.9788 68.529 36.6262 67.827 37.2548C67.4681 37.5599 67.114 37.871 66.7392 38.1565C66.5527 38.3002 66.3723 38.4519 66.1806 38.5888L65.6084 39.0032C63.961 40.1739 62.1521 41.1336 60.2631 41.8742L61.0323 40.2625C61.6744 42.4193 62.625 44.455 64.0967 45.9957C64.1693 46.0853 64.2547 46.1595 64.3358 46.2366C64.4169 46.3139 64.4972 46.3904 64.5765 46.4659C64.6554 46.5423 64.7334 46.6179 64.8105 46.6926C64.8913 46.7633 64.9758 46.8278 65.0566 46.8953C65.2203 47.0273 65.3754 47.1634 65.5342 47.2882C65.6992 47.4064 65.8602 47.5217 66.0174 47.6343C66.1706 47.7536 66.3343 47.8516 66.4922 47.951C66.6502 48.0516 66.8042 48.1497 66.9544 48.2453C67.1109 48.3342 67.2633 48.4208 67.4118 48.5051C67.5595 48.592 67.7041 48.6769 67.8519 48.7494C69.0116 49.3664 69.9852 49.8181 70.7171 50.2335L70.7662 50.2618C70.7883 50.2727 70.81 50.2835 70.8314 50.294C70.8743 50.3158 70.9153 50.3379 70.9538 50.3601C71.031 50.4045 71.0984 50.4496 71.1541 50.4915C71.2659 50.5762 71.3296 50.6419 71.3689 50.6816C71.4446 50.7612 71.4384 50.7628 71.3726 50.7634C71.3073 50.7641 71.1674 50.7498 70.9862 50.8027C70.8974 50.829 70.8017 50.879 70.7302 50.9461C70.6569 51.0126 70.617 51.0867 70.5755 51.1226C70.5649 51.1319 70.5538 51.1393 70.5416 51.1449C70.5124 51.1456 70.4714 51.143 70.4355 51.1418C70.3609 51.1374 70.2822 51.1327 70.1996 51.1279C70.0346 51.1161 69.8543 51.0991 69.6589 51.0768C69.2675 51.0188 68.8145 50.9549 68.3042 50.8267C67.2882 50.5839 66.017 50.1776 64.6539 49.3651C63.9151 48.9418 63.2266 48.3924 62.5669 47.8005C62.4079 47.6466 62.257 47.4834 62.1017 47.3236L61.8704 47.0815C61.792 47.0016 61.716 46.9196 61.649 46.8306C61.5102 46.6562 61.371 46.4813 61.2316 46.3062L61.0236 46.0421C60.9556 45.9531 60.899 45.8574 60.8363 45.7652C59.8214 44.2897 59.1185 42.6415 58.615 41.0049C58.4321 40.4105 58.7306 39.7828 59.2884 39.5413L59.3199 39.5279C59.8374 39.3061 60.3464 39.1073 60.8315 38.8639C61.3046 38.6516 61.7562 38.3945 62.2159 38.1536C62.6618 37.8873 63.1159 37.6338 63.5463 37.3415C64.4183 36.7755 65.2574 36.1545 66.0451 35.4744C66.8352 34.7975 67.584 34.0721 68.2736 33.2998C68.9618 32.528 69.5946 31.7072 70.1216 30.8517C70.3919 30.4262 70.6119 29.9945 70.8142 29.538C71.0202 29.0866 71.1828 28.6118 71.3338 28.1328C71.621 27.1677 71.808 26.161 71.9104 25.1367C72.0131 24.1121 72.0319 23.0702 71.9895 22.0255C71.9834 21.7645 71.9663 21.5029 71.9466 21.2413C71.9285 20.9797 71.9127 20.7181 71.8826 20.4563C71.8535 20.1979 71.8354 19.9254 71.7974 19.6787L71.6805 18.9454C71.4787 17.9679 71.1594 17.0021 70.7662 16.0607C70.5432 15.5996 70.3471 15.1272 70.0877 14.6818C69.9612 14.4581 69.8504 14.2263 69.7118 14.009L69.3035 13.3532C69.1741 13.1305 69.0126 12.9276 68.8678 12.7145L68.645 12.3983C68.5725 12.2916 68.4962 12.1877 68.4137 12.0883C68.0915 11.6849 67.7803 11.2729 67.4267 10.896C66.7532 10.1127 65.9904 9.41417 65.2136 8.74023L64.6065 8.26474L64.3034 8.02664C64.1997 7.95114 64.0923 7.88089 63.987 7.80764L63.3531 7.37198C63.1402 7.22955 62.9148 7.10784 62.6966 6.9745L62.3671 6.77836L62.2022 6.68061L62.0313 6.59463L61.3485 6.24977C61.1271 6.12951 60.8805 6.03069 60.64 5.92663L59.9173 5.61589C57.9775 4.81504 55.9592 4.19937 53.902 3.75091C51.63 3.25637 49.2637 2.96775 46.9036 2.84405C44.5426 2.71927 42.1878 2.75773 39.9138 2.88936L38.5516 2.98202L37.1917 3.12215C36.7374 3.16223 36.2868 3.23518 35.8344 3.29519C35.3824 3.35807 34.9294 3.41608 34.4804 3.50017C32.6722 3.7873 30.9015 4.18858 29.1478 4.69452C25.6455 5.7068 22.2611 7.14523 19.0869 8.95323C17.4996 9.85708 15.9643 10.853 14.4907 11.9327C13.0113 13.0072 11.6233 14.1638 10.3513 15.4409C9.07529 16.7125 7.92364 18.1067 6.86159 19.5777C6.33876 20.3201 5.82345 21.0696 5.34363 21.847C4.85447 22.6183 4.39284 23.4121 3.9479 24.1921C2.76346 26.4456 2.16431 29.0494 2.42053 31.6136C2.65465 34.1805 3.63369 36.6787 5.10706 38.8468C5.83983 39.9358 6.71184 40.9342 7.66963 41.8384C8.62893 42.7421 9.68135 43.5482 10.8035 44.2396C11.0889 44.404 11.3678 44.5806 11.6579 44.7363L12.5371 45.1866L13.4405 45.5832C13.5894 45.6538 13.7459 45.7045 13.8998 45.7617L14.3627 45.9307C15.6035 46.3605 16.8882 46.6536 18.1874 46.7937C19.6183 46.9455 21.0666 46.9037 22.4819 46.663L22.5236 46.6559C23.0674 46.5634 23.5833 46.9293 23.6758 47.4732C23.6909 47.5621 23.693 47.6553 23.6848 47.741L23.6737 47.8516L23.6626 47.9267L23.6389 48.0749L23.5837 48.3431C23.5408 48.5131 23.499 48.683 23.4492 48.8456C23.397 49.0055 23.348 49.1684 23.2921 49.3254L23.1151 49.7886C22.8643 50.3945 22.5816 50.9762 22.2662 51.5316C21.6387 52.6449 20.9179 53.6826 20.1307 54.6524C18.572 56.6097 16.7933 58.3381 14.9301 59.941L14.0396 58.2925C17.6955 57.2595 21.2411 55.7822 24.3811 53.7013C25.947 52.6606 27.405 51.4651 28.674 50.1019C29.9425 48.7403 31.0183 47.2078 31.8061 45.5377L31.8093 45.531C31.9445 45.2444 32.2214 45.0692 32.5165 45.0487C35.3454 44.8591 38.1853 44.5911 41.0022 44.2414C42.4107 44.0644 43.8154 43.8666 45.2072 43.6284L46.2475 43.4401L47.2783 43.2288L48.295 42.9899C48.6235 42.8955 48.9615 42.8111 49.2812 42.7072C49.4843 42.638 49.687 42.5689 49.8811 42.5027L49.9173 42.4904C50.196 42.3955 50.4922 42.4734 50.6894 42.6659C53.3624 45.2856 56.4023 47.3636 59.6165 48.7384C62.8269 50.1192 66.174 50.8478 69.3981 50.9694C70.1623 50.9971 70.729 51.0149 71.0989 51.0533C71.2841 51.0724 71.4194 51.0978 71.5067 51.1303C71.5284 51.1385 71.5468 51.1473 71.562 51.1568C71.6254 51.1537 71.7361 51.1135 71.8044 51.0478C71.8764 50.9826 71.9113 50.9118 71.931 50.8663C71.9506 50.8201 71.9591 50.7883 71.9666 50.7745C71.9726 50.7733 71.9786 50.7729 71.9846 50.7733C71.9899 50.7788 71.9982 50.7609 72.0001 50.7976C72.0017 50.8269 72.0021 50.8741 71.9771 50.9488C71.9539 51.0213 71.8901 51.128 71.7858 51.2006C71.7352 51.2368 71.6792 51.2631 71.6276 51.2796L71.5896 51.2906C71.5861 51.292 71.5874 51.2925 71.5861 51.2935L71.5817 51.2987C71.5694 51.3129 71.5536 51.3277 71.5342 51.343C71.4945 51.374 71.4438 51.4049 71.3778 51.4382C71.2465 51.5042 71.0615 51.5723 70.821 51.6391C70.3407 51.7701 69.6385 51.8895 68.7158 51.9325C68.063 51.9612 67.4058 51.9613 66.7457 51.9382C66.0867 51.9055 65.4231 51.863 64.7614 51.7771C63.436 51.6208 62.1111 51.3507 60.8072 50.9759C58.1989 50.2283 55.6774 49.0551 53.3969 47.5403C51.9144 46.5631 50.5207 45.4248 49.2288 44.1688L50.6444 44.4544L50.1239 44.6362C49.9503 44.6961 49.7747 44.7598 49.6069 44.8033L49.0974 44.9476L48.8424 45.0195L48.5903 45.08C47.9166 45.2487 47.2478 45.3865 46.5795 45.5193C45.2443 45.7752 43.9144 45.9776 42.5896 46.1673C42.5793 46.1821 42.5694 46.1958 42.5561 46.2113Z" fill="#FFE852"/>
</svg>
