<svg width="87" height="87" viewBox="0 0 87 87" fill="none" xmlns="http://www.w3.org/2000/svg">
<g opacity="0.6" clip-path="url(#clip0_2015_608)">
<path d="M25.1985 22.6101C25.977 23.501 26.852 24.3169 27.8257 24.9845C28.3112 25.3193 28.8145 25.625 29.3414 25.884C29.8681 26.1414 30.4108 26.3595 30.968 26.5308C31.4386 26.6778 31.9205 26.7757 32.4045 26.8518L32.4561 26.8594C32.9733 26.9419 33.3271 27.4278 33.2446 27.945C33.203 28.2097 33.0534 28.4326 32.85 28.5751C32.1527 29.0605 31.4408 29.5059 30.7623 29.9515C30.1714 30.3405 29.6051 30.7222 29.0898 31.1344C28.5726 31.544 28.1142 31.9934 27.7003 32.4883C27.5972 32.6116 27.4943 32.7363 27.4003 32.8686L27.2549 33.0633C27.2084 33.1279 27.1791 33.1864 27.141 33.2464C27.0679 33.3675 26.9885 33.4789 26.926 33.6255C26.861 33.7664 26.7878 33.8951 26.729 34.0456L26.5522 34.4941C26.4952 34.6458 26.4474 34.8066 26.3955 34.9619L26.3181 35.1964L26.2513 35.4397L26.1175 35.9248C25.792 37.2403 25.5716 38.6074 25.4266 39.9794C25.3618 40.6656 25.3019 41.3539 25.2807 42.037C25.259 42.7171 25.2518 43.4023 25.3017 44.0393C25.3507 44.6627 24.8848 45.2079 24.2613 45.2569C23.7865 45.2934 23.3566 45.0326 23.1575 44.6291L23.1522 44.6163C22.7791 43.8565 22.4988 43.1216 22.2224 42.392L21.4285 40.2305C20.9965 39.0592 20.5526 37.9068 20.0327 36.85C19.7701 36.3282 19.4834 35.8335 19.1769 35.4168L18.9424 35.1322C18.8525 35.0369 18.7546 34.9399 18.6615 34.8436C18.4639 34.6561 18.2607 34.4711 18.0386 34.3C17.6014 33.9537 17.1237 33.6373 16.6206 33.3498C16.1154 33.0673 15.5874 32.8116 15.0445 32.5829C13.9588 32.127 12.8118 31.7809 11.6592 31.55C11.0119 31.4205 10.5914 30.7894 10.7224 30.1418C10.7886 29.8088 10.9873 29.5361 11.253 29.3674L11.2626 29.3611C12.0535 28.8622 12.8426 28.3621 13.5632 27.8101C14.3014 27.2717 14.9627 26.6769 15.5557 26.0407L15.9862 25.5536L16.3687 25.0368C16.5053 24.8695 16.6061 24.6812 16.7188 24.4998C16.8248 24.3151 16.9527 24.1418 17.0364 23.9427L17.3168 23.3647C17.4022 23.1669 17.4708 22.9598 17.5498 22.7601L17.6654 22.4564C17.6986 22.3515 17.7255 22.2448 17.7559 22.1404L17.9351 21.5072C18.2212 20.3052 18.4322 19.0312 18.5791 17.7563C18.6073 17.4498 18.6461 17.1688 18.6955 16.9133C18.7202 16.7856 18.7474 16.6635 18.7771 16.5471C18.7847 16.5122 18.7908 16.5036 18.7985 16.487C18.805 16.4721 18.813 16.457 18.8213 16.4433C18.8375 16.4146 18.8555 16.387 18.8764 16.359C18.9573 16.2472 19.0745 16.126 19.1805 15.9672C19.2883 15.8096 19.3815 15.6211 19.448 15.4281C19.6397 14.8566 19.6231 14.5382 19.8405 14.7085C19.8939 14.7524 19.9625 14.8302 20.0455 14.9557C20.1283 15.0797 20.2249 15.2561 20.3129 15.4873C20.4006 15.7171 20.4733 15.9997 20.5159 16.3014C20.5259 16.3758 20.5356 16.4564 20.5434 16.5266C20.5478 16.5776 20.554 16.6298 20.5589 16.6838C20.5688 16.7917 20.5763 16.9031 20.5815 17.0194C20.5969 17.3137 20.6056 17.6138 20.6107 17.919C20.6128 18.2248 20.5886 18.5367 20.5721 18.8489C20.5496 19.4728 20.4376 20.1078 20.3442 20.7183C20.2882 20.9963 20.2212 21.2731 20.1604 21.5504L20.0677 21.9658L19.9453 22.3773C19.8595 22.6514 19.7864 22.9278 19.6893 23.1977L19.3731 24.0044C18.9101 25.0669 18.3003 26.0746 17.5669 26.9686L16.9957 27.6161C16.7993 27.8244 16.591 28.0164 16.3875 28.2184C16.1877 28.4242 15.9706 28.6011 15.7563 28.7851C15.5417 28.9676 15.3317 29.1585 15.1076 29.3214L14.4465 29.8309L13.7723 30.3092L13.435 30.5469L13.0941 30.7731L12.411 31.2271L12.0787 29.3939C13.2785 29.6073 14.451 29.9169 15.5992 30.3298C16.3457 30.5988 17.0986 30.9123 17.8209 31.3028C18.5429 31.6918 19.2331 32.1596 19.8288 32.7217C20.0249 32.9186 20.2267 33.1039 20.4104 33.3167C20.5039 33.4236 20.5992 33.515 20.6906 33.6359L20.9612 33.9873C21.058 34.1042 21.12 34.2228 21.2003 34.3411C21.2744 34.4591 21.3562 34.5772 21.4226 34.6949C21.5496 34.9314 21.6949 35.1678 21.8066 35.404C22.284 36.3495 22.6608 37.2944 23.0198 38.2333C23.3759 39.1728 23.7055 40.1092 24.0367 41.0287C24.3688 41.9449 24.7007 42.8597 25.0785 43.6719L23.1544 44.1879C23.106 43.3953 23.134 42.647 23.1817 41.8984C23.2419 41.0043 23.3377 40.1223 23.4608 39.24C23.5825 38.358 23.7306 37.4789 23.9263 36.6021C24.1221 35.7253 24.3425 34.8502 24.6699 33.9776C24.8352 33.5418 25.0173 33.1061 25.253 32.6715C25.2816 32.6178 25.3069 32.563 25.34 32.5084L25.4437 32.3455L25.6548 32.0219C25.7255 31.9135 25.798 31.8321 25.8711 31.737C25.9447 31.6448 26.0133 31.5505 26.0907 31.4622C26.4908 30.9758 26.9431 30.526 27.4209 30.1173C27.8987 29.7086 28.4016 29.3473 28.9035 29.0151C29.9108 28.3531 30.8949 27.7836 31.8134 27.1357L32.1923 28.6027C31.1622 28.4615 30.159 28.1799 29.2099 27.7898C28.2638 27.3915 27.3735 26.8859 26.5444 26.304C25.7189 25.717 24.957 25.0501 24.2582 24.3265C23.5612 23.604 22.9379 22.7986 22.3871 21.9726C21.6834 20.9102 21.1315 19.8103 20.7082 18.7228C20.282 17.6358 19.9853 16.5579 19.8005 15.5182C19.7329 15.1265 19.7755 14.8753 19.8866 14.7887L19.8121 15.1522C19.7848 15.1874 19.7408 15.2226 19.6941 15.243C19.6474 15.2635 19.6016 15.2715 19.5686 15.2743C19.5008 15.2786 19.4742 15.2742 19.4698 15.2841C19.4682 15.292 19.4908 15.317 19.5696 15.332C19.6089 15.3388 19.6642 15.3412 19.7252 15.3244C19.7864 15.309 19.8505 15.2749 19.8952 15.235L19.995 14.7468C20.1576 14.7363 20.3893 14.9529 20.634 15.4078C21.3664 16.7714 22.1239 18.1823 22.9514 19.5062C23.6274 20.5933 24.3265 21.6901 25.1618 22.6181C25.1716 22.6133 25.1815 22.6086 25.1942 22.6033L25.1985 22.6101Z" fill="#FFE852"/>
<path d="M53.6264 33.0969C53.9279 33.6408 54.242 34.1779 54.5633 34.7046C54.6439 34.8336 54.7261 34.9714 54.8052 35.0915C54.8829 35.2042 54.9541 35.3227 55.0375 35.4329C55.1998 35.654 55.3733 35.8687 55.5596 36.0704C56.3073 36.8814 57.2608 37.5205 58.3332 37.962C59.2486 38.3504 60.2507 38.6002 61.272 38.743C61.7873 38.8151 62.1455 39.2912 62.0746 39.8048C62.0397 40.0562 61.9083 40.2697 61.7252 40.4147L61.7024 40.4325C61.5178 40.5777 61.3285 40.7132 61.1539 40.8719C60.1409 41.7527 59.2854 42.8524 58.5826 44.041C57.8786 45.2314 57.3292 46.5209 56.9387 47.8478C56.5497 49.1745 56.3176 50.5452 56.3059 51.8952C56.2951 53.242 56.5056 54.5742 57.0166 55.727L54.8992 56.5634C54.4411 55.3221 53.9906 54.0886 53.4963 52.8917C53.0519 51.814 52.5766 50.76 52.037 49.7555C51.4961 48.7527 50.8921 47.7976 50.2072 46.9191C50.035 46.7028 49.8554 46.4877 49.6783 46.2782C49.4994 46.0752 49.3167 45.8774 49.1256 45.6918C48.7443 45.3173 48.3404 44.9788 47.9185 44.6938C47.0726 44.1209 46.1554 43.7998 45.2801 43.8369C44.6209 43.8648 44.063 43.3524 44.0351 42.6932C44.0194 42.3106 44.1836 41.9633 44.4522 41.7332L44.4603 41.7272C45.1615 41.1344 45.7883 40.4649 46.299 39.7077C46.4342 39.524 46.545 39.3232 46.668 39.1309C46.7771 38.9289 46.8948 38.733 46.9937 38.5251C47.2035 38.1165 47.379 37.6865 47.5346 37.2478C48.1598 35.4895 48.3784 33.5501 48.3842 31.5964C48.3858 30.3182 48.374 29.0074 48.3058 27.714C48.2714 27.0956 48.291 26.5758 48.353 26.1415C48.3833 25.9244 48.4263 25.7279 48.4789 25.5511C48.4959 25.4141 48.5235 25.26 48.568 25.1409C48.6117 25.0175 48.6681 24.9222 48.7166 24.8604C49.0029 24.5494 48.8272 25.0389 49.2852 25.3298C49.3955 25.3941 49.5408 25.3974 49.6301 25.3679C49.6756 25.3584 49.7067 25.3362 49.731 25.3441C49.7639 25.4098 49.7973 25.4786 49.8289 25.5537C49.9606 25.8519 50.0788 26.2286 50.1748 26.6778C50.4165 27.8156 50.5466 29.0888 50.5657 30.3024C50.5843 31.4705 50.5504 32.6432 50.4273 33.8194C50.3647 34.4062 50.2842 34.9946 50.1693 35.5784C50.0576 36.1632 49.9198 36.7465 49.744 37.3213C49.4001 38.4725 48.9086 39.5979 48.2602 40.6368C47.9326 41.1545 47.5708 41.6509 47.1722 42.1202C46.7697 42.5842 46.3363 43.0201 45.8765 43.4271L45.1767 41.6268C46.2688 41.5576 47.3546 41.8155 48.2884 42.257C49.0739 42.6257 49.7988 43.1087 50.4291 43.6601C50.7486 43.9343 51.0423 44.2267 51.3152 44.5304L51.5156 44.7601C51.578 44.8375 51.6389 44.9151 51.7013 44.9924C51.8216 45.1479 51.9446 45.3014 52.0549 45.4601C53.2008 47.0782 54.1043 48.8076 54.883 50.5544C55.6607 52.3045 56.3119 54.0799 56.932 55.8348L56.9381 55.852C57.1243 56.3812 56.8477 56.9631 56.317 57.1496C55.8065 57.3295 55.247 57.0763 55.0397 56.5828C54.639 55.6238 54.3998 54.6211 54.3078 53.6244C54.1399 51.7562 54.3509 49.9126 54.8032 48.1498C55.2634 46.3886 55.9676 44.6986 56.917 43.1467C57.8847 41.5687 59.1085 40.113 60.6628 38.9936L61.0453 40.4981C60.4748 40.4068 59.9047 40.3093 59.3403 40.1575C58.7762 40.0163 58.2181 39.8314 57.6717 39.6094C57.1247 39.3921 56.5951 39.1184 56.0879 38.8072C55.5807 38.4961 55.0981 38.1349 54.6602 37.7247C54.2211 37.3162 53.8216 36.8643 53.4749 36.3755C53.3924 36.253 53.3002 36.1276 53.2244 36.0085L52.9989 35.6537C52.8489 35.4167 52.7049 35.1786 52.5606 34.939C51.9881 33.9813 51.4468 33.0106 50.9369 32.0191C50.3687 30.9129 49.884 29.7966 49.5334 28.6811C49.1881 27.5691 48.9593 26.4443 49.0056 25.3852C49.0304 25.1112 49.0883 24.9212 49.1667 24.8221L49.1255 24.7091C49.1072 24.6574 49.068 24.5989 49.0178 24.5559C48.9673 24.5115 48.9138 24.4844 48.8724 24.4658C48.7897 24.4286 48.7466 24.4088 48.734 24.3805C48.7249 24.3547 48.7376 24.3144 48.8542 24.2847C48.9113 24.2716 49.0049 24.2673 49.1165 24.304C49.2276 24.3377 49.339 24.417 49.4125 24.497L49.5234 24.7973C49.5828 24.8493 49.6398 24.9306 49.6935 25.0369C49.7491 25.1444 49.7858 25.275 49.8476 25.4438C49.9064 25.6132 49.9496 25.7807 50.0195 25.9527C50.0848 26.124 50.1503 26.2967 50.2172 26.4692C50.3667 26.816 50.5088 27.1641 50.6756 27.514C50.9983 28.2126 51.3509 28.9165 51.7219 29.6127C52.326 30.7582 52.9274 31.9575 53.6005 33.0969C53.6123 33.0948 53.6227 33.093 53.636 33.0907L53.6264 33.0969Z" fill="#FFE852"/>
<path d="M38.3298 58.1234C38.8814 59.1091 39.6578 59.8845 40.66 60.3597C40.755 60.4146 40.8616 60.4491 40.9646 60.4888L41.2767 60.6089C41.4923 60.6745 41.7143 60.7237 41.9343 60.7793L42.0124 60.7991C42.513 60.9256 42.8156 61.4327 42.6891 61.9333C42.6266 62.1834 42.4643 62.3857 42.259 62.5087C42.1075 62.5994 41.9574 62.6898 41.8123 62.7825C41.511 62.9742 41.2259 63.1631 40.9782 63.356C40.7307 63.5504 40.5185 63.7463 40.3366 63.9672C39.9752 64.4056 39.6891 64.977 39.4701 65.5837C39.2546 66.1929 39.1028 66.835 39.0521 67.4456C38.9973 68.0508 39.0692 68.6398 39.2501 68.9749L37.1801 69.8989C36.8845 69.1986 36.5823 68.5208 36.2463 67.8855C35.7301 66.9103 35.1254 66.0376 34.375 65.3839C33.6253 64.7256 32.7351 64.281 31.8562 64.2029C31.2001 64.1449 30.7173 63.566 30.7752 62.91C30.804 62.5896 30.9573 62.3097 31.1833 62.1145L31.231 62.0741L31.4876 61.8537L31.6161 61.7442L31.7348 61.6228L31.9754 61.3808L32.1969 61.1163L32.3076 60.9841L32.4091 60.8428L32.6133 60.5585L32.7979 60.2579L32.8902 60.1076C32.9193 60.0568 32.9462 60.0018 32.9736 59.9497C33.4274 59.1112 33.7609 58.1781 33.9801 57.2012C34.123 56.5865 34.3083 55.9614 34.4513 55.33C34.5279 55.0301 34.6257 54.7813 34.7698 54.5792C34.906 54.3755 35.0744 54.2163 35.2644 54.093C35.5404 53.9133 35.819 53.9129 36.0416 54.0869C36.2625 54.2597 36.4366 54.6082 36.4652 55.0982C36.5043 55.7173 36.4258 56.3953 36.2726 57.0209C36.2055 57.3312 36.1137 57.6399 36.034 57.9479L35.894 58.4067L35.8231 58.6354L35.7429 58.8628C35.5425 59.4709 35.2852 60.0676 34.9996 60.6511C34.7129 61.2363 34.3611 61.7979 33.9721 62.3386C33.5714 62.8738 33.1075 63.3699 32.5939 63.8261L32.0541 61.9914C32.5288 62.0143 33.0001 62.0957 33.4524 62.2247C34.3445 62.4725 35.2206 62.9151 35.8287 63.539C36.2395 63.9509 36.6077 64.3978 36.9402 64.8494C37.2726 65.301 37.5653 65.7688 37.8356 66.239C38.3707 67.1834 38.7995 68.1466 39.167 69.0993L39.1758 69.1236C39.3775 69.6455 39.1187 70.2334 38.5968 70.4351C38.0992 70.6279 37.5409 70.3989 37.3143 69.9255C37.0796 69.4323 36.9879 68.9382 36.9609 68.4739C36.9303 67.9294 36.9768 67.4155 37.0573 66.9215C37.1392 66.4273 37.2592 65.9507 37.41 65.4839C37.561 65.0187 37.7429 64.5647 37.9691 64.1196C38.197 63.6758 38.4641 63.2388 38.815 62.8357C39.1835 62.4037 39.6309 62.0384 40.065 61.7532C40.5024 61.4613 40.9232 61.2303 41.3326 60.9951L41.621 62.5268C40.4217 62.2904 39.2389 61.7588 38.2866 60.9534C38.1709 60.8504 38.0604 60.742 37.9472 60.6355L37.7802 60.4745C37.7277 60.4183 37.6793 60.3598 37.6279 60.3019L37.3275 59.9543L37.0599 59.5856L36.927 59.4019L36.8096 59.2109L36.5759 58.8272L36.3707 58.4323C36.3019 58.3012 36.2346 58.1699 36.1785 58.0336C36.1105 57.8811 36.0455 57.7281 35.9851 57.5757C35.9321 57.4221 35.8806 57.2682 35.8338 57.115C35.784 56.9623 35.7463 56.809 35.7148 56.6562C35.6818 56.5036 35.6505 56.3522 35.6269 56.201C35.5413 55.5947 35.5319 55.0054 35.6252 54.4376C35.7083 53.9157 36.2026 53.8422 36.4423 54.3468C36.7862 55.0614 37.1092 55.7965 37.4471 56.4863C37.7195 57.0551 37.9635 57.6351 38.2915 58.1393C38.3013 58.1345 38.3114 58.1312 38.3227 58.1262L38.3298 58.1234Z" fill="#FFE852"/>
<path d="M66.2577 15.4921C66.472 15.9295 66.7315 16.3392 67.0175 16.7259C67.0919 16.8194 67.1587 16.9219 67.2397 17.0096L67.475 17.2819C67.6419 17.4505 67.807 17.627 67.9889 17.7777C68.2551 18.0171 68.5509 18.2178 68.8567 18.3969L68.8703 18.4052C69.3288 18.6731 69.4842 19.2611 69.2166 19.721C69.1746 19.7939 69.1197 19.863 69.0628 19.9203C68.9604 20.0221 68.8583 20.1254 68.7594 20.2296C68.1292 20.9744 67.6623 21.8944 67.397 22.8688C67.2617 23.3542 67.1715 23.8529 67.1383 24.3386C67.1335 24.4582 67.1201 24.5809 67.1254 24.6973C67.1262 24.8144 67.1244 24.9335 67.136 25.0427L67.1484 25.208L67.175 25.3587L67.1839 25.4348C67.188 25.4585 67.1961 25.4784 67.2012 25.4988C67.2132 25.5408 67.2237 25.5832 67.2328 25.6257L67.2448 25.6769C67.379 26.2823 66.9977 26.8842 66.3923 27.0183C65.9043 27.1272 65.4176 26.8978 65.178 26.4892C64.9466 26.0928 64.7392 25.6938 64.5571 25.3177C64.3738 24.9433 64.2039 24.5757 64.0297 24.2531C63.9878 24.1706 63.9449 24.0914 63.9015 24.0183C63.8579 23.9437 63.8167 23.8657 63.7722 23.7943C63.6811 23.6581 63.5947 23.5134 63.4982 23.3979C63.4082 23.2675 63.3039 23.1686 63.2079 23.0561C63.1564 23.0058 63.1015 22.9622 63.0502 22.9133L62.9721 22.8418L62.8855 22.7824C62.4407 22.4542 61.8755 22.2462 61.2076 22.1553C60.5569 22.0674 60.101 21.4685 60.1889 20.8178C60.229 20.5183 60.3784 20.2605 60.5898 20.077L60.6414 20.0328L60.9005 19.8089C60.944 19.7708 60.9881 19.7356 61.0301 19.6977L61.1471 19.5751C61.224 19.493 61.3079 19.4157 61.3828 19.3309L61.5956 19.0695C61.8623 18.7072 62.1105 18.3268 62.283 17.8973C62.4628 17.4742 62.6093 17.0264 62.6966 16.5541C62.7533 16.3232 62.7725 16.0777 62.8109 15.8379L62.8405 15.4701L62.8553 15.2863L62.859 15.0998C62.884 14.5852 62.931 14.0483 62.9704 13.5113C62.9751 13.3826 62.9952 13.2633 63.0257 13.1513C63.0576 13.0299 63.102 12.9794 63.1407 12.7411C63.1895 12.5512 63.2686 12.3956 63.3562 12.2964C63.4436 12.1957 63.5324 12.1465 63.6092 12.133C63.8336 12.101 63.9407 12.3974 64.2045 12.6068C64.3298 12.7126 64.5065 12.782 64.6491 12.7614C64.7193 12.7536 64.7729 12.729 64.8045 12.7097L64.8099 12.7057C64.8099 12.7057 64.8143 12.7049 64.8156 12.7123L64.8305 12.7447C64.8388 12.7661 64.8489 12.7887 64.8575 12.8115C64.8747 12.8572 64.8907 12.9047 64.9057 12.9553C64.9417 13.0815 64.974 13.2129 65.0018 13.3451C65.0255 13.4795 65.0421 13.6167 65.0557 13.7544C65.0889 14.0288 65.0839 14.3115 65.0759 14.5855C65.0423 15.2159 64.9952 15.8472 64.8798 16.4799C64.7686 17.1103 64.6241 17.7419 64.3929 18.3569C63.9569 19.5899 63.215 20.764 62.2301 21.6917C62.1741 21.7457 62.1199 21.801 62.0625 21.8553L61.5326 19.8696C61.8718 19.9103 62.2158 19.9258 62.5642 20.0274C62.738 20.0714 62.9088 20.1159 63.0765 20.1944C63.1604 20.2299 63.2416 20.2674 63.3234 20.3078C63.4046 20.3453 63.4837 20.3877 63.5587 20.4415C64.0647 20.7543 64.5174 21.1619 64.8965 21.5932C65.2794 22.0283 65.5711 22.4993 65.8153 22.9512C66.061 23.4029 66.2676 23.8493 66.4582 24.2651C66.6503 24.6805 66.8352 25.0729 67.0231 25.4388L65.1879 26.2087C65.1496 26.0174 65.1016 25.8142 65.0933 25.6374C65.046 25.1705 65.0666 24.7435 65.1063 24.3207L65.1394 24.0072L65.1885 23.6984C65.2174 23.4908 65.2661 23.2918 65.3081 23.0894C65.4907 22.285 65.7776 21.5109 66.1706 20.7851C66.6063 19.9909 67.1635 19.2468 67.8588 18.6292L68.0411 19.974C67.1439 19.4636 66.3558 18.7952 65.7276 18.0226L65.4921 17.7321L65.2745 17.4308L65.1658 17.2809L65.0667 17.1247L64.8684 16.8124C64.6215 16.3883 64.3901 15.957 64.2 15.5092C63.7479 14.4831 63.6156 13.396 63.8814 12.4414C63.9167 12.3133 63.9851 12.2175 64.0684 12.1632C64.0834 12.1529 64.0876 12.1339 64.0774 12.119C64.0769 12.116 64.0734 12.1136 64.0699 12.1111L63.9077 11.9859C63.8406 11.9338 63.733 11.9192 63.6688 11.9184C63.6015 11.9165 63.5613 11.9129 63.5421 11.8904C63.5246 11.8692 63.5247 11.8265 63.59 11.7647C63.6227 11.7346 63.6759 11.6993 63.7512 11.6769C63.8247 11.6533 63.9181 11.6475 64.0038 11.6582L64.4052 12.1038C64.5205 12.1353 64.6288 12.2228 64.6987 12.3689C64.9797 12.9514 65.2528 13.5415 65.5385 14.108C65.7712 14.5726 65.9674 15.0635 66.2264 15.5128C66.2362 15.5081 66.2463 15.5048 66.2576 15.4997L66.2577 15.4921Z" fill="#FFE852"/>
<path d="M71.0872 60.7795C71.1366 60.8956 71.1868 61.0163 71.2382 61.126C71.2636 61.184 71.2895 61.2358 71.3131 61.2834C71.337 61.3325 71.3612 61.3831 71.3892 61.4299C71.4949 61.623 71.618 61.8115 71.7559 61.9806C72.0324 62.3218 72.366 62.6072 72.7275 62.7917C72.928 62.8919 73.137 62.9632 73.3511 62.994L73.42 63.0047C73.9312 63.079 74.2861 63.5541 74.2103 64.0656C74.175 64.3063 74.0488 64.5144 73.8742 64.6564C73.6878 64.8081 73.5159 64.9739 73.3672 65.1586C73.0589 65.5434 72.8234 65.9871 72.6167 66.4911C72.5133 66.7424 72.4157 67.0094 72.3184 67.287L72.1695 67.7123C72.1244 67.8452 72.0865 67.9585 72.0524 68.0848C71.9152 68.5766 71.8405 69.0772 71.8558 69.5528C71.8682 70.0289 71.9648 70.4733 72.1428 70.8608L70.0586 71.7127C69.7538 70.9774 69.4416 70.2694 69.0831 69.6182C68.6543 68.8363 68.1612 68.1389 67.5647 67.5891C66.9691 67.0361 66.2822 66.6302 65.5751 66.464C64.9344 66.3119 64.5363 65.6693 64.6883 65.0287C64.7555 64.7442 64.9195 64.5081 65.1377 64.3463L65.1889 64.3083L65.4325 64.1267L65.5555 64.038L65.6687 63.9373L65.8952 63.736L66.1027 63.5135L66.2082 63.4035L66.3025 63.2818L66.4916 63.0413L66.6591 62.7818C66.6866 62.7389 66.7173 62.6969 66.743 62.6528L66.8162 62.515C66.8654 62.4225 66.9166 62.3328 66.964 62.2391L67.0927 61.9499C67.1385 61.855 67.174 61.7543 67.2096 61.6536C67.2451 61.5529 67.2839 61.4531 67.3162 61.3515C67.3707 61.1423 67.4416 60.9394 67.4795 60.7226C67.5017 60.6151 67.5258 60.5103 67.5463 60.4016L67.5938 60.0749C67.6577 59.5564 67.7713 59.0261 67.824 58.4868C67.8551 58.2315 67.9171 58.0043 68.0316 57.8242C68.0929 57.8438 68.2172 57.892 68.3599 57.8546C68.5031 57.8202 68.618 57.6949 68.6619 57.5546C68.7824 57.1328 68.5666 56.8418 68.777 56.7651C68.8306 56.7496 68.9209 56.7519 69.0525 56.8156C69.182 56.8765 69.3483 57.0162 69.4643 57.2075C69.5236 57.3021 69.5704 57.4035 69.6079 57.5036C69.6236 57.5495 69.6393 57.5955 69.6553 57.643C69.6651 57.6641 69.6749 57.6852 69.685 57.7078C69.7236 57.7969 69.756 57.8948 69.7827 58.0028C69.8565 58.2746 69.8778 58.5679 69.8961 58.8617C69.8992 59.0089 69.8934 59.1576 69.8874 59.3049C69.8837 59.3787 69.8799 59.4524 69.8744 59.525C69.8645 59.5983 69.8561 59.6714 69.8474 59.743C69.6962 60.9501 69.375 62.143 68.8274 63.2616C68.5527 63.8203 68.2072 64.3488 67.8136 64.8462C67.4119 65.3405 66.9422 65.7782 66.4338 66.177L66.0926 64.2769C66.3516 64.3287 66.6115 64.3864 66.8619 64.4672C67.638 64.705 68.4079 65.0978 68.9324 65.6542C70.4598 67.2675 71.3873 69.1328 72.0439 70.9392L72.0642 70.9935C72.2535 71.5145 71.9852 72.0919 71.4627 72.2815C70.9473 72.4683 70.3789 72.2076 70.1813 71.7002C70.0951 71.4793 70.0217 71.2531 69.971 71.0259C69.7578 70.0933 69.7898 69.1601 69.9691 68.2938C70.0587 67.8606 70.1876 67.4343 70.3469 67.033C70.4871 66.6793 70.6306 66.3098 70.8004 65.9341C71.0118 65.4657 71.2633 64.9827 71.5855 64.5299C71.9028 64.0749 72.2965 63.6643 72.7209 63.3153L73.1741 64.754C72.6067 64.6804 72.0697 64.4857 71.6047 64.2067C71.137 63.9297 70.7366 63.5768 70.3983 63.1872C70.2268 62.992 70.0759 62.784 69.9331 62.5701C69.7964 62.3566 69.6655 62.1237 69.5639 61.9102C69.3519 61.4769 69.1773 61.0477 69.0139 60.6135C68.8148 60.0804 68.6749 59.5461 68.6159 59.0128C68.5571 58.4809 68.5743 57.9478 68.7142 57.454C68.747 57.3462 68.8007 57.2621 68.8672 57.2077L68.8684 57.2318C68.8863 57.247 68.8939 57.2898 68.8785 57.3321C68.8634 57.3759 68.8302 57.4122 68.8055 57.4364C68.7532 57.4852 68.7261 57.5128 68.7282 57.5505C68.7339 57.583 68.7588 57.6381 68.8871 57.6398C68.9495 57.6395 69.0496 57.6112 69.1398 57.5267C69.2305 57.4452 69.2833 57.3217 69.2971 57.2355L69.2914 57.1512C69.3899 57.1917 69.4725 57.2715 69.5317 57.3997C69.8097 57.9919 70.1019 58.6121 70.392 59.2296C70.6313 59.7403 70.8126 60.2933 71.0525 60.7901C71.0626 60.7868 71.0727 60.7835 71.0842 60.78L71.0872 60.7795Z" fill="#FFE852"/>
</g>
<defs>
<clipPath id="clip0_2015_608">
<rect width="75" height="75" fill="white" transform="translate(0 13.0236) rotate(-10)"/>
</clipPath>
</defs>
</svg>
