<svg width="55" height="55" viewBox="0 0 55 55" fill="none" xmlns="http://www.w3.org/2000/svg">
<path opacity="0.6" d="M42.4709 51.1469L11.7024 20.3785L11.3595 20.7213C11.2511 20.8311 11.1221 20.9184 10.9798 20.9781C10.8376 21.0378 10.6849 21.0688 10.5307 21.0693C10.3764 21.0697 10.2235 21.0397 10.0809 20.9809C9.93827 20.9221 9.80869 20.8356 9.6996 20.7265C9.59051 20.6174 9.50407 20.4878 9.44526 20.3452C9.38645 20.2026 9.35642 20.0497 9.35691 19.8955C9.3574 19.7412 9.38839 19.5885 9.44811 19.4463C9.50782 19.304 9.59508 19.175 9.70486 19.0666L10.0477 18.7237L7.02155 15.6976L6.67868 16.0405C6.57027 16.1503 6.44123 16.2375 6.29897 16.2972C6.15672 16.3569 6.00406 16.3879 5.84979 16.3884C5.69551 16.3889 5.54266 16.3588 5.40003 16.3C5.25741 16.2412 5.12782 16.1548 5.01873 16.0457C4.90965 15.9366 4.82321 15.807 4.7644 15.6644C4.70559 15.5217 4.67556 15.3689 4.67605 15.2146C4.67654 15.0603 4.70753 14.9077 4.76725 14.7654C4.82696 14.6232 4.91422 14.4941 5.02399 14.3857L5.36687 14.0428L1.79443 10.4705C0.644982 9.31976 -0.000457287 7.75966 4.76837e-07 6.13318C0.000454426 4.5067 0.646775 2.94697 1.79687 1.79687C2.94696 0.646776 4.5067 0.000456978 6.13318 2.42236e-07C7.75966 -0.000456494 9.31975 0.644987 10.4705 1.79444L14.0428 5.3668L14.3857 5.02393C14.6056 4.80678 14.9025 4.68545 15.2116 4.68643C15.5206 4.68741 15.8167 4.81062 16.0353 5.02915C16.2538 5.24769 16.377 5.54381 16.3779 5.85285C16.3789 6.1619 16.2576 6.45878 16.0404 6.67868L15.6975 7.02156L18.7237 10.0477L19.0666 9.70479C19.2865 9.48764 19.5834 9.36631 19.8924 9.36729C20.2015 9.36827 20.4976 9.49148 20.7161 9.71002C20.9346 9.92855 21.0578 10.2247 21.0588 10.5337C21.0598 10.8428 20.9384 11.1396 20.7213 11.3595L20.3784 11.7024L51.1469 42.4709C51.2612 42.6105 51.3565 42.7646 51.4303 42.9292L54.9398 53.4599C54.9985 53.6358 55.0146 53.8231 54.9867 54.0064C54.9588 54.1897 54.8877 54.3638 54.7794 54.5142C54.671 54.6647 54.5284 54.7872 54.3634 54.8718C54.1984 54.9563 54.0156 55.0004 53.8302 55.0004C53.7043 55.0007 53.5792 54.9802 53.4599 54.9398L42.9291 51.4304C42.7663 51.3533 42.6126 51.2582 42.4709 51.1469ZM8.81573 3.4492C8.08963 2.76832 7.13187 2.38892 6.13648 2.38785C5.14108 2.38679 4.18251 2.76415 3.45497 3.44348C2.74256 4.15553 2.34182 5.12118 2.34075 6.12842C2.33968 7.13567 2.73836 8.10217 3.44926 8.81573L7.02155 12.3881L12.3881 7.02156L8.81573 3.4492ZM14.0428 8.67631L8.67631 14.0428L11.7024 17.069L17.069 11.7024L14.0428 8.67631ZM13.3572 18.7237L42.5009 47.8675C42.8928 46.607 43.5885 45.4621 44.5267 44.5336C45.457 43.5926 46.6043 42.8947 47.8676 42.5011L18.7237 13.3572L13.3572 18.7237ZM50.9087 48.7697C50.0207 49.2831 49.2831 50.0207 48.7697 50.9087L51.9777 51.9777L50.9087 48.7697ZM46.5186 50.1586C47.3106 48.5866 48.5866 47.3107 50.1586 46.5187L49.4944 44.5257C48.2371 44.6998 47.0725 45.2843 46.1815 46.1884C45.2806 47.0781 44.6986 48.2402 44.5256 49.4945L46.5186 50.1586Z" fill="#FFE852"/>
</svg>
