<svg width="80" height="48" viewBox="0 0 80 48" fill="none" xmlns="http://www.w3.org/2000/svg">
<path opacity="0.6" d="M66.5194 0.154099C66.4459 0.173551 66.3739 0.198231 66.3039 0.227952L65.5752 0.539004L65.5707 0.542109L65.5658 0.543129L45.4267 9.29786C45.036 8.85082 44.527 8.52195 43.9573 8.34851C43.3876 8.17508 42.7801 8.16401 42.2035 8.31655L29.8396 11.6294C29.264 11.7856 28.7434 12.099 28.3368 12.534C27.9301 12.9691 27.6538 13.5084 27.5389 14.0909L5.7104 16.5797L4.92381 16.6747C4.84832 16.684 4.77359 16.6986 4.70019 16.7185C0.294654 17.899 -1.25716 25.395 1.09033 34.156C3.43781 42.9169 8.52974 48.6328 12.9353 47.4523C13.0088 47.4328 13.0809 47.4082 13.1509 47.3784L33.7121 38.4454L34.9838 43.1914C35.0511 43.4426 35.1793 43.6733 35.3571 43.8634C35.535 44.0535 35.7571 44.1973 36.004 44.282C36.2508 44.3668 36.515 44.39 36.7733 44.3497C37.0317 44.3093 37.2764 44.2067 37.4859 44.0506L43.8767 39.2886L51.7922 40.2172C52.0517 40.2476 52.3149 40.2142 52.5589 40.12C52.8028 40.0257 53.0199 39.8735 53.1913 39.6767C53.3628 39.4798 53.4832 39.2443 53.5422 38.9908C53.6011 38.7372 53.5968 38.4733 53.5295 38.2221L52.258 33.4765L73.7341 31.0279L73.7412 31.0265L73.7443 31.0267C73.9312 31.0041 74.5765 30.9356 74.7545 30.8879C79.1601 29.7074 80.7119 22.2114 78.3644 13.4504C76.0169 4.68951 70.925 -1.02636 66.5194 0.154099ZM12.6249 44.1417L12.0242 44.3992C10.0994 44.7621 6.16165 40.7185 4.18129 33.3277C2.20093 25.9369 3.58934 20.4662 5.43774 19.8182L28.0298 17.239L32.8792 35.3369L12.6249 44.1417ZM49.8306 36.7813L43.625 36.0524C43.2171 36.0051 42.8061 36.1153 42.4765 36.3601L37.4668 40.0942L30.6632 14.7028L43.027 11.3899L49.8306 36.7813ZM51.425 30.3677L46.5755 12.2694L62.3107 5.42832C61.512 9.4736 61.7176 13.6489 62.9096 17.5915C63.8486 21.6019 65.7582 25.3207 68.4725 28.4246L51.425 30.3677ZM72.1551 27.3685C70.2445 26.1769 67.9428 22.8549 66.4571 18.288L67.9578 17.8859C68.3677 17.7765 68.8039 17.8333 69.1709 18.0437C69.5378 18.2542 69.8054 18.6012 69.915 19.0085L72.1551 27.3685ZM75.2364 26.5044L73.006 18.1803C72.6771 16.9584 71.8742 15.9175 70.7734 15.2862C69.6727 14.6548 68.3639 14.4845 67.1343 14.8125L65.6336 15.2146C64.3834 9.32301 65.2262 4.48749 66.9651 3.40673L67.4305 3.20724C69.3553 2.84428 73.2931 6.88784 75.2734 14.2787C76.7741 19.8793 76.339 24.3719 75.2364 26.5044Z" fill="#FFE852"/>
</svg>
