<svg width="67" height="40" viewBox="0 0 67 40" fill="none" xmlns="http://www.w3.org/2000/svg">
<path opacity="0.6" d="M63.5966 19.8635L61.5237 18.6664C61.8247 18.0574 61.964 17.3812 61.9283 16.7028C61.8926 16.0244 61.6831 15.3666 61.3198 14.7925C60.9566 14.2184 60.4518 13.7474 59.854 13.4247C59.2562 13.102 58.5855 12.9384 57.9063 12.9497L56.0578 6.05102C56.0035 5.8694 55.901 5.7059 55.7612 5.57796C55.6213 5.45003 55.4493 5.36246 55.2636 5.32459L24.853 0.0144871C24.7098 -0.0100798 24.563 -0.00332551 24.4226 0.0342858C24.2822 0.0718971 24.1517 0.139472 24.0399 0.232361L0.358639 20.0363C0.212342 20.1586 0.10406 20.3202 0.0465553 20.5021C-0.010949 20.6839 -0.0152786 20.8783 0.0340766 21.0625C0.0834318 21.2467 0.184415 21.413 0.325123 21.5417C0.465832 21.6704 0.640401 21.7562 0.828256 21.789L14.3185 24.1445L17.5087 36.0505C17.5579 36.2343 17.6586 36.4003 17.7989 36.5289C17.9392 36.6575 18.1133 36.7434 18.3007 36.7765L34.6013 39.6557C34.7452 39.681 34.8929 39.6746 35.034 39.6368C35.1752 39.599 35.3063 39.5307 35.4182 39.4368L48.0954 28.793C48.2412 28.6707 48.349 28.5092 48.4062 28.3277C48.4634 28.1462 48.4676 27.9521 48.4183 27.7683L45.2281 15.8623L54.5315 8.08227L55.9744 13.4673C55.3805 13.7972 54.8815 14.2742 54.5251 14.8526C54.1688 15.4309 53.9672 16.0912 53.9396 16.77C53.912 17.4488 54.0595 18.1232 54.3678 18.7286C54.676 19.3339 55.1348 19.8499 55.7 20.2268L54.5034 22.3C54.4376 22.4137 54.395 22.5392 54.3778 22.6694C54.3607 22.7996 54.3693 22.9319 54.4033 23.0588L56.9915 32.718C57.0255 32.8449 57.0841 32.9638 57.164 33.068C57.244 33.1722 57.3437 33.2596 57.4574 33.3253C57.5711 33.391 57.6967 33.4336 57.8269 33.4507C57.9571 33.4678 58.0894 33.4591 58.2163 33.4251L65.9437 31.3546C66.0705 31.3206 66.1895 31.262 66.2937 31.182C66.3979 31.1021 66.4853 31.0024 66.551 30.8887C66.6166 30.775 66.6592 30.6494 66.6764 30.5192C66.6935 30.389 66.6848 30.2567 66.6508 30.1298L64.0626 20.4706C64.0286 20.3437 63.97 20.2248 63.89 20.1206C63.81 20.0165 63.7103 19.9291 63.5966 19.8635ZM24.9666 2.06471L50.459 6.51595L27.7871 12.5909C27.5309 12.6595 27.3125 12.8271 27.1799 13.0568C27.0473 13.2865 27.0114 13.5594 27.08 13.8156C27.1486 14.0718 27.3162 14.2902 27.5459 14.4228C27.7756 14.5554 28.0486 14.5913 28.3047 14.5227L50.9766 8.4478L31.1252 25.0488L3.29361 20.1891L24.9666 2.06471ZM34.4896 37.6049L19.2757 34.9178L18.294 31.2541L33.0484 33.8601C33.1923 33.8855 33.34 33.8791 33.4811 33.8412C33.6223 33.8034 33.7534 33.7352 33.8653 33.6413L45.3399 24.0071L46.3216 27.6708L34.4896 37.6049ZM44.7687 21.8751L32.9367 31.8094L17.7228 29.1221L16.4907 24.5238L31.2388 27.0991C31.3821 27.124 31.529 27.1174 31.6694 27.0797C31.8098 27.0421 31.9404 26.9744 32.0519 26.8812L43.5366 17.2769L44.7687 21.8751ZM57.4212 15.0032C57.8033 14.9008 58.2072 14.914 58.5817 15.0412C58.9563 15.1683 59.2848 15.4037 59.5256 15.7175C59.7664 16.0313 59.9087 16.4095 59.9346 16.8042C59.9604 17.1989 59.8687 17.5925 59.6709 17.935C59.4731 18.2776 59.1782 18.5538 58.8234 18.7288C58.4687 18.9037 58.07 18.9695 57.6778 18.9179C57.2856 18.8663 56.9176 18.6995 56.6202 18.4387C56.3228 18.1779 56.1094 17.8348 56.007 17.4527C55.8704 16.9403 55.9425 16.3947 56.2076 15.9355C56.4728 15.4763 56.9092 15.141 57.4212 15.0032ZM64.4601 29.6815L58.6645 31.2344L56.4423 22.9411L57.6168 20.9063C58.5349 21.0018 59.456 20.755 60.2034 20.2132L62.2379 21.3882L64.4601 29.6815Z" fill="#FFE852"/>
</svg>
