<svg width="42" height="56" viewBox="0 0 42 56" fill="none" xmlns="http://www.w3.org/2000/svg">
<path opacity="0.6" d="M12.999 55.4784C12.8291 55.524 12.6501 55.5355 12.4706 55.5181C11.8687 55.4464 11.3851 55.0008 11.2575 54.4162C9.19182 44.668 7.03586 36.5675 4.95951 28.7369C3.21853 22.1851 1.57402 15.9933 0.0357178 9.11057C-0.0598956 8.69937 0.0425422 8.29334 0.271066 7.97729C0.36113 7.44354 0.774848 6.97594 1.31537 6.84567C5.45508 5.79468 10.139 4.62701 14.8142 3.45436C19.5185 2.28122 24.2209 1.10129 28.381 0.0448337C29.1304 -0.14868 29.8922 0.30241 30.0857 1.05142L41.7632 45.3394C41.9179 45.9168 41.6874 46.5246 41.1947 46.8605C40.702 47.1963 40.0499 47.1818 39.5695 46.83C34.0788 42.8118 28.4237 38.8596 22.7357 35.0836C19.9307 41.6595 16.9639 48.2568 13.9027 54.7194C13.7214 55.1028 13.3863 55.3746 12.9922 55.4803L12.999 55.4784ZM2.97627 9.32006C4.44845 15.8201 6.02198 21.7469 7.68469 28.0066C9.48027 34.7622 11.3286 41.7147 13.127 49.7582C15.7874 44.0292 18.3661 38.2128 20.809 32.4329C20.9749 32.0462 21.2977 31.7559 21.695 31.6349C22.1028 31.5256 22.532 31.578 22.8772 31.8059C27.9797 35.1636 33.0624 38.665 38.0405 42.2381L27.724 3.11118C23.9037 4.07659 19.706 5.12856 15.4997 6.17556C11.1846 7.2517 6.86453 8.33644 2.96948 9.32188L2.97627 9.32006Z" fill="#FFE852"/>
</svg>
