<svg width="48" height="55" viewBox="0 0 48 55" fill="none" xmlns="http://www.w3.org/2000/svg">
<g opacity="0.6">
<path d="M1.12336 31.2865C0.834793 31.2865 0.546233 31.1696 0.332477 30.9412C-0.0629706 30.5056 -0.0363137 29.8363 0.401885 29.4379C10.6408 20.1469 20.6498 10.3565 30.1513 0.332475C30.5574 -0.0924987 31.2308 -0.113756 31.6637 0.289969C32.0912 0.693694 32.1126 1.36304 31.7064 1.79332C22.1676 11.8546 12.1157 21.6874 1.83936 31.0156C1.63629 31.2015 1.37452 31.2918 1.11801 31.2918L1.12336 31.2865Z" fill="#FFE852"/>
<path d="M26.0097 20.7737C25.8867 20.7737 25.7585 20.7524 25.6356 20.7046C25.0852 20.4974 24.802 19.8866 25.0104 19.3341L26.341 15.8174C26.7899 14.6275 27.2602 13.3951 27.6877 12.168C28.9809 8.50255 30.023 4.715 30.7872 0.911488C30.9048 0.337773 31.4658 -0.0393948 32.0429 0.077473C32.6201 0.194341 32.9995 0.752106 32.882 1.32582C32.0964 5.23027 31.0277 9.11346 29.7024 12.8692C29.2642 14.1175 28.7939 15.3606 28.3343 16.5611L27.0037 20.0778C26.8434 20.5028 26.4373 20.7684 26.0044 20.7684L26.0097 20.7737Z" fill="#FFE852"/>
<path d="M26.8167 21.1881C26.277 21.1881 25.8121 20.779 25.7533 20.2319C25.6945 19.6475 26.1221 19.1269 26.7099 19.0685C33.4485 18.3832 40.2887 18.3567 47.0327 18.9835C47.6206 19.0366 48.0534 19.5572 47.9947 20.1415C47.9412 20.7259 47.4175 21.1509 46.8297 21.0978C40.2193 20.4815 33.5234 20.5081 26.9237 21.1827C26.8863 21.1827 26.8488 21.1881 26.8114 21.1881H26.8167Z" fill="#FFE852"/>
<path d="M1.06987 31.6265C0.530133 31.6265 0.0705638 31.2227 0.0064371 30.6809C-0.0576896 30.0966 0.364488 29.5706 0.952316 29.5069C7.60546 28.7844 14.3709 28.6038 21.0508 28.9598C21.6386 28.9916 22.0928 29.491 22.0607 30.0753C22.0286 30.6596 21.5262 31.1165 20.9384 31.0793C14.3708 30.7287 7.723 30.9093 1.18742 31.6159C1.15001 31.6159 1.10727 31.6212 1.06987 31.6212V31.6265Z" fill="#FFE852"/>
<path d="M13.7081 54.2138C13.5745 54.2138 13.4409 54.1873 13.3127 54.1394C12.7623 53.9216 12.495 53.3055 12.7141 52.7583C15.7067 45.3 18.3199 37.5974 20.4841 29.8628C20.6445 29.2997 21.2323 28.9651 21.7987 29.1244C22.3652 29.2838 22.7018 29.8681 22.5415 30.4312C20.3558 38.2401 17.7213 46.0171 14.6967 53.5445C14.531 53.9588 14.1303 54.2138 13.7028 54.2138H13.7081Z" fill="#FFE852"/>
<path d="M14.1144 54.9947C13.8418 54.9947 13.5745 54.8938 13.3661 54.6866C12.944 54.2722 12.944 53.6029 13.3554 53.1832C24.2249 42.2349 35.0409 30.9412 45.5149 19.6316C45.9157 19.2013 46.5891 19.1694 47.0273 19.5678C47.4602 19.9662 47.4923 20.6356 47.0915 21.0711C36.6014 32.402 25.764 43.7116 14.8785 54.6813C14.6701 54.8938 14.3921 55 14.1196 55L14.1144 54.9947Z" fill="#FFE852"/>
</g>
</svg>
