<svg width="61" height="61" viewBox="0 0 61 61" fill="none" xmlns="http://www.w3.org/2000/svg">
<g opacity="0.3">
<path d="M60.5 30.5003C60.5 47.0683 47.0689 60.5 30.4997 60.5C13.9311 60.5 0.5 47.0683 0.5 30.5003C0.5 13.9317 13.9311 0.5 30.4997 0.5C47.0689 0.5 60.5 13.9317 60.5 30.5003Z" stroke="#636F7D" stroke-miterlimit="10" stroke-linecap="round" stroke-linejoin="round"/>
<path d="M10.0084 36.4501C10.0084 35.106 11.0978 34.0159 12.4425 34.0159C13.7866 34.0159 14.8767 35.106 14.8767 36.4501C14.8767 37.7948 13.7866 38.8849 12.4425 38.8849C11.0978 38.8849 10.0084 37.7948 10.0084 36.4501Z" stroke="#636F7D" stroke-miterlimit="10" stroke-linecap="round" stroke-linejoin="round"/>
<path d="M25.8545 49.4913C25.8545 47.4741 27.4896 45.8397 29.5061 45.8397C31.5232 45.8397 33.1583 47.4741 33.1583 49.4913C33.1583 51.5077 31.5232 53.1428 29.5061 53.1428C27.4896 53.1428 25.8545 51.5077 25.8545 49.4913Z" stroke="#636F7D" stroke-miterlimit="10" stroke-linecap="round" stroke-linejoin="round"/>
<path d="M14.5473 46.4219C14.5473 45.1088 15.611 44.0451 16.9234 44.0451C18.2351 44.0451 19.3001 45.1088 19.3001 46.4219C19.3001 47.7349 18.2351 48.7986 16.9234 48.7986C15.611 48.7986 14.5473 47.7349 14.5473 46.4219Z" stroke="#636F7D" stroke-miterlimit="10" stroke-linecap="round" stroke-linejoin="round"/>
<path d="M23.2244 37.8953C23.2244 36.7933 24.1178 35.8992 25.2197 35.8992C26.3217 35.8992 27.2158 36.7933 27.2158 37.8953C27.2158 38.9972 26.3217 39.8906 25.2197 39.8906C24.1178 39.8906 23.2244 38.9972 23.2244 37.8953Z" stroke="#636F7D" stroke-miterlimit="10" stroke-linecap="round" stroke-linejoin="round"/>
</g>
</svg>
