<svg width="616" height="295" viewBox="0 0 616 295" fill="none" xmlns="http://www.w3.org/2000/svg">
<g opacity="0.3">
<path d="M584.765 13.9575V0.500005" stroke="#636F7D" stroke-miterlimit="10" stroke-linecap="round" stroke-linejoin="round"/>
<path d="M581.179 5.67572H588.35" stroke="#636F7D" stroke-miterlimit="10" stroke-linecap="round" stroke-linejoin="round"/>
<path d="M567.65 272.753H615.5V267.289H567.65V272.753Z" fill="#636F7D"/>
<path d="M605.237 184.911C605.237 214.91 580.86 239.227 550.792 239.227C520.721 239.227 496.345 214.91 496.345 184.911C496.345 154.912 520.721 130.593 550.792 130.593C580.86 130.593 605.237 154.912 605.237 184.911Z" stroke="#636F7D" stroke-miterlimit="10" stroke-linecap="round" stroke-linejoin="round"/>
<path d="M595.678 184.911C595.678 209.641 575.581 229.691 550.792 229.691C526.001 229.691 505.906 209.641 505.906 184.911C505.906 160.179 526.001 140.132 550.792 140.132C575.581 140.132 595.678 160.179 595.678 184.911Z" stroke="#636F7D" stroke-miterlimit="10" stroke-linecap="round" stroke-linejoin="round"/>
<path d="M571.579 184.911C571.579 196.363 562.272 205.649 550.792 205.649C539.311 205.649 530.003 196.363 530.003 184.911C530.003 173.457 539.311 164.172 550.792 164.172C562.272 164.172 571.579 173.457 571.579 184.911Z" stroke="#636F7D" stroke-miterlimit="10" stroke-linecap="round" stroke-linejoin="round"/>
<path d="M557.546 184.911C557.546 188.632 554.522 191.652 550.792 191.652C547.06 191.652 544.036 188.632 544.036 184.911C544.036 181.188 547.06 178.171 550.792 178.171C554.522 178.171 557.546 181.188 557.546 184.911Z" fill="#636F7D"/>
<path d="M550.792 130.593V239.227" stroke="#636F7D" stroke-miterlimit="10" stroke-linecap="round" stroke-linejoin="round"/>
<path d="M536.7 132.444L564.884 237.376" stroke="#636F7D" stroke-miterlimit="10" stroke-linecap="round" stroke-linejoin="round"/>
<path d="M523.569 137.87L578.015 231.951" stroke="#636F7D" stroke-miterlimit="10" stroke-linecap="round" stroke-linejoin="round"/>
<path d="M512.292 146.503L589.291 223.318" stroke="#636F7D" stroke-miterlimit="10" stroke-linecap="round" stroke-linejoin="round"/>
<path d="M503.638 157.752L597.944 212.069" stroke="#636F7D" stroke-miterlimit="10" stroke-linecap="round" stroke-linejoin="round"/>
<path d="M498.2 170.852L603.382 198.969" stroke="#636F7D" stroke-miterlimit="10" stroke-linecap="round" stroke-linejoin="round"/>
<path d="M496.345 184.912H605.237" stroke="#636F7D" stroke-miterlimit="10" stroke-linecap="round" stroke-linejoin="round"/>
<path d="M498.2 198.97L603.382 170.852" stroke="#636F7D" stroke-miterlimit="10" stroke-linecap="round" stroke-linejoin="round"/>
<path d="M503.638 212.07L597.944 157.752" stroke="#636F7D" stroke-miterlimit="10" stroke-linecap="round" stroke-linejoin="round"/>
<path d="M512.292 223.319L589.291 146.503" stroke="#636F7D" stroke-miterlimit="10" stroke-linecap="round" stroke-linejoin="round"/>
<path d="M523.569 231.952L578.015 137.87" stroke="#636F7D" stroke-miterlimit="10" stroke-linecap="round" stroke-linejoin="round"/>
<path d="M536.7 237.377L564.884 132.444" stroke="#636F7D" stroke-miterlimit="10" stroke-linecap="round" stroke-linejoin="round"/>
<path d="M558.469 128.01C557.245 131.041 554.269 133.177 550.792 133.177C547.316 133.177 544.339 131.041 543.113 128.01H558.469Z" fill="#636F7D"/>
<path d="M531.245 135.619C530.022 138.649 527.046 140.786 523.569 140.786C520.094 140.786 517.116 138.649 515.891 135.619H531.245Z" fill="#636F7D"/>
<path d="M512.292 155.169C511.069 158.2 508.092 160.336 504.613 160.336C501.14 160.336 498.162 158.2 496.936 155.169H512.292Z" fill="#636F7D"/>
<path d="M504.022 182.327C502.8 185.36 499.821 187.495 496.345 187.495C492.871 187.495 489.893 185.36 488.667 182.327H504.022Z" fill="#636F7D"/>
<path d="M511.317 210.014C510.094 213.044 507.116 215.181 503.638 215.181C500.165 215.181 497.187 213.044 495.961 210.014H511.317Z" fill="#636F7D"/>
<path d="M531.245 229.368C530.022 232.399 527.046 234.533 523.569 234.533C520.094 234.533 517.116 232.399 515.891 229.368H531.245Z" fill="#636F7D"/>
<path d="M570.337 135.619C571.56 138.649 574.537 140.786 578.015 140.786C581.49 140.786 584.467 138.649 585.692 135.619H570.337Z" fill="#636F7D"/>
<path d="M589.291 155.169C590.514 158.2 593.49 160.336 596.969 160.336C600.442 160.336 603.42 158.2 604.646 155.169H589.291Z" fill="#636F7D"/>
<path d="M597.56 182.327C598.783 185.36 601.76 187.495 605.237 187.495C608.712 187.495 611.69 185.36 612.916 182.327H597.56Z" fill="#636F7D"/>
<path d="M590.266 210.014C591.49 213.044 594.466 215.181 597.944 215.181C601.418 215.181 604.396 213.044 605.622 210.014H590.266Z" fill="#636F7D"/>
<path d="M570.337 229.368C571.56 232.399 574.537 234.533 578.015 234.533C581.49 234.533 584.467 232.399 585.692 229.368H570.337Z" fill="#636F7D"/>
<path d="M558.469 236.949C557.245 239.98 554.269 242.115 550.792 242.115C547.316 242.115 544.339 239.98 543.113 236.949H558.469Z" fill="#636F7D"/>
<path d="M595.678 259.879V267.792H572.495V259.879H575.99L550.532 184.911L588.684 259.879H595.678Z" fill="#636F7D"/>
<path d="M505.386 259.879V267.792H528.569V259.879H525.072L550.532 184.911L512.38 259.879H505.386Z" fill="#636F7D"/>
<path d="M606.848 91.1232V127.823H603.452V267.286H566.098V127.823H562.703V91.1232H568.453V79.8306L577.102 61.1069H577.509V47.3759H575.81V44.8236H577.509L583.552 13.9498H585.977L592.022 44.8236H593.72V47.3759H592.022V61.1069H592.428L601.078 79.8306V91.1232H606.848Z" fill="white"/>
<path d="M603.444 159.161H566.088V154.485H603.444V159.161Z" stroke="#636F7D" stroke-miterlimit="10" stroke-linecap="round" stroke-linejoin="round"/>
<path d="M603.444 185.98H566.088V181.304H603.444V185.98Z" stroke="#636F7D" stroke-miterlimit="10" stroke-linecap="round" stroke-linejoin="round"/>
<path d="M603.444 239.902H566.088V235.226H603.444V239.902Z" stroke="#636F7D" stroke-miterlimit="10" stroke-linecap="round" stroke-linejoin="round"/>
<path d="M603.444 217.599H566.088V208.123H603.444V217.599Z" stroke="#636F7D" stroke-miterlimit="10" stroke-linecap="round" stroke-linejoin="round"/>
<path d="M598.631 127.823H570.898V91.1231H598.631V127.823Z" stroke="#636F7D" stroke-miterlimit="10" stroke-linecap="round" stroke-linejoin="round"/>
<path d="M598.631 267.286H570.898V127.823H598.631V267.286Z" stroke="#636F7D" stroke-miterlimit="10" stroke-linecap="round" stroke-linejoin="round"/>
<path d="M573.728 131.212V258.817" stroke="#636F7D" stroke-miterlimit="10" stroke-linecap="round" stroke-linejoin="round"/>
<path d="M577.407 131.212V258.817" stroke="#636F7D" stroke-miterlimit="10" stroke-linecap="round" stroke-linejoin="round"/>
<path d="M581.086 131.212V258.817" stroke="#636F7D" stroke-miterlimit="10" stroke-linecap="round" stroke-linejoin="round"/>
<path d="M584.765 131.212V258.817" stroke="#636F7D" stroke-miterlimit="10" stroke-linecap="round" stroke-linejoin="round"/>
<path d="M588.445 131.212V258.817" stroke="#636F7D" stroke-miterlimit="10" stroke-linecap="round" stroke-linejoin="round"/>
<path d="M592.124 131.212V258.817" stroke="#636F7D" stroke-miterlimit="10" stroke-linecap="round" stroke-linejoin="round"/>
<path d="M595.803 131.212V258.817" stroke="#636F7D" stroke-miterlimit="10" stroke-linecap="round" stroke-linejoin="round"/>
<path d="M598.631 120.012H570.898V91.1232H598.631V120.012Z" stroke="#636F7D" stroke-miterlimit="10" stroke-linecap="round" stroke-linejoin="round"/>
<path d="M596.66 117.959H572.868V94.6996H596.66V117.959Z" stroke="#636F7D" stroke-miterlimit="10" stroke-linecap="round" stroke-linejoin="round"/>
<path d="M595.803 106.33C595.803 112.412 590.859 117.341 584.765 117.341C578.67 117.341 573.728 112.412 573.728 106.33C573.728 100.249 578.67 95.3205 584.765 95.3205C590.859 95.3205 595.803 100.249 595.803 106.33Z" stroke="#636F7D" stroke-miterlimit="10" stroke-linecap="round" stroke-linejoin="round"/>
<path d="M580.331 106.33H584.765" stroke="#636F7D" stroke-miterlimit="10" stroke-linecap="round" stroke-linejoin="round"/>
<path d="M584.765 101.21V106.33" stroke="#636F7D" stroke-miterlimit="10" stroke-linecap="round" stroke-linejoin="round"/>
<path d="M586.362 83.3087V89.2484H583.916V83.3087C583.916 82.6312 584.46 82.089 585.137 82.089C585.818 82.089 586.362 82.6312 586.362 83.3087Z" fill="#636F7D"/>
<path d="M586.362 51.875V57.8138H583.916V51.875C583.916 51.1975 584.46 50.6553 585.137 50.6553C585.818 50.6553 586.362 51.1975 586.362 51.875Z" fill="#636F7D"/>
<path d="M589.804 51.875V57.8138H587.359V51.875C587.359 51.1975 587.903 50.6553 588.582 50.6553C589.26 50.6553 589.804 51.1975 589.804 51.875Z" fill="#636F7D"/>
<path d="M580.472 51.875V57.8138H582.917V51.875C582.917 51.1975 582.375 50.6553 581.694 50.6553C581.015 50.6553 580.472 51.1975 580.472 51.875Z" fill="#636F7D"/>
<path d="M582.918 83.3087V89.2484H580.474V83.3087C580.474 82.6312 581.017 82.089 581.696 82.089C582.375 82.089 582.918 82.6312 582.918 83.3087Z" fill="#636F7D"/>
<path d="M579.477 83.3087V89.2484H577.031V83.3087C577.031 82.6312 577.575 82.089 578.253 82.089C578.932 82.089 579.477 82.6312 579.477 83.3087Z" fill="#636F7D"/>
<path d="M576.034 83.3087V89.2484H573.589V83.3087C573.589 82.6312 574.133 82.089 574.813 82.089C575.49 82.089 576.034 82.6312 576.034 83.3087Z" fill="#636F7D"/>
<path d="M587.357 83.3087V89.2484H589.802V83.3087C589.802 82.6312 589.257 82.089 588.582 82.089C587.901 82.089 587.357 82.6312 587.357 83.3087Z" fill="#636F7D"/>
<path d="M590.802 83.3087V89.2484H593.246V83.3087C593.246 82.6312 592.704 82.089 592.022 82.089C591.345 82.089 590.802 82.6312 590.802 83.3087Z" fill="#636F7D"/>
<path d="M594.241 83.3087V89.2484H596.687V83.3087C596.687 82.6312 596.143 82.089 595.466 82.089C594.786 82.089 594.241 82.6312 594.241 83.3087Z" fill="#636F7D"/>
<path d="M603.444 267.286H566.088V127.823H603.444V267.286Z" stroke="#636F7D" stroke-miterlimit="10" stroke-linecap="round" stroke-linejoin="round"/>
<path d="M606.839 127.823H562.692V91.1231H606.839V127.823Z" stroke="#636F7D" stroke-miterlimit="10" stroke-linecap="round" stroke-linejoin="round"/>
<path d="M601.084 91.1231H568.445V79.8305H601.084V91.1231Z" stroke="#636F7D" stroke-miterlimit="10" stroke-linecap="round" stroke-linejoin="round"/>
<path d="M592.022 61.104H577.508V47.3642H592.022V61.104Z" stroke="#636F7D" stroke-miterlimit="10" stroke-linecap="round" stroke-linejoin="round"/>
<path d="M592.022 44.8235H577.508L583.556 13.9575H585.973L592.022 44.8235Z" stroke="#636F7D" stroke-miterlimit="10" stroke-linecap="round" stroke-linejoin="round"/>
<path d="M593.727 47.3642H575.802V44.8236H593.727V47.3642Z" stroke="#636F7D" stroke-miterlimit="10" stroke-linecap="round" stroke-linejoin="round"/>
<path d="M601.084 79.8306H568.445L577.097 61.104H592.432L601.084 79.8306Z" stroke="#636F7D" stroke-miterlimit="10" stroke-linecap="round" stroke-linejoin="round"/>
<path d="M565.583 82.0888V91.1231" stroke="#636F7D" stroke-miterlimit="10" stroke-linecap="round" stroke-linejoin="round"/>
<path d="M604.694 82.0888V91.1231" stroke="#636F7D" stroke-miterlimit="10" stroke-linecap="round" stroke-linejoin="round"/>
<path d="M228.798 256.001V293.781H179.139V256.001H188.427V189.288H186.877V163.334L189.271 147.651H190.328L191.929 158.173H196.794L202.404 138.47H205.534L211.142 158.173H216.009L217.609 147.651H218.666L221.06 163.334V189.288H219.509V256.001H228.798Z" fill="white"/>
<path d="M206.231 238.757V249.449H201.707V238.757C201.707 237.511 202.723 236.499 203.966 236.499C205.217 236.499 206.231 237.511 206.231 238.757Z" fill="#636F7D"/>
<path d="M205.389 220.591V227.31H202.549V220.591C202.549 219.808 203.186 219.172 203.967 219.172C204.753 219.172 205.389 219.808 205.389 220.591Z" fill="#636F7D"/>
<path d="M212.178 220.591V227.31H209.336V220.591C209.336 219.808 209.973 219.172 210.755 219.172C211.541 219.172 212.178 219.808 212.178 220.591Z" fill="#636F7D"/>
<path d="M198.602 220.591V227.31H195.76V220.591C195.76 219.808 196.398 219.172 197.179 219.172C197.965 219.172 198.602 219.808 198.602 220.591Z" fill="#636F7D"/>
<path d="M205.389 201.581V208.298H202.549V201.581C202.549 200.796 203.186 200.16 203.967 200.16C204.753 200.16 205.389 200.796 205.389 201.581Z" fill="#636F7D"/>
<path d="M205.389 167.232V171.085H202.549V167.232C202.549 166.448 203.186 165.811 203.967 165.811C204.753 165.811 205.389 166.448 205.389 167.232Z" fill="#636F7D"/>
<path d="M212.178 201.581V208.298H209.336V201.581C209.336 200.796 209.973 200.16 210.755 200.16C211.541 200.16 212.178 200.796 212.178 201.581Z" fill="#636F7D"/>
<path d="M198.602 201.581V208.298H195.76V201.581C195.76 200.796 196.398 200.16 197.179 200.16C197.965 200.16 198.602 200.796 198.602 201.581Z" fill="#636F7D"/>
<path d="M197.985 238.776H196.436V235.864H197.985V238.776Z" fill="#636F7D"/>
<path d="M197.985 243.616H196.436V240.706H197.985V243.616Z" fill="#636F7D"/>
<path d="M204.744 234.974H203.194V233.072H204.744V234.974Z" fill="#636F7D"/>
<path d="M197.985 248.456H196.436V245.547H197.985V248.456Z" fill="#636F7D"/>
<path d="M211.532 238.776H209.983V235.864H211.532V238.776Z" fill="#636F7D"/>
<path d="M211.532 243.616H209.983V240.706H211.532V243.616Z" fill="#636F7D"/>
<path d="M211.532 248.456H209.983V245.547H211.532V248.456Z" fill="#636F7D"/>
<path d="M221.058 176.253H186.88V174.706H221.058V176.253Z" stroke="#636F7D" stroke-miterlimit="10" stroke-linecap="round" stroke-linejoin="round"/>
<path d="M192.716 163.334V256.001" stroke="#636F7D" stroke-miterlimit="10" stroke-linecap="round" stroke-linejoin="round"/>
<path d="M215.58 163.334V256.001" stroke="#636F7D" stroke-miterlimit="10" stroke-linecap="round" stroke-linejoin="round"/>
<path d="M207.363 183.704H200.575V177.347H207.363V183.704Z" fill="#636F7D"/>
<path d="M198.193 183.704H195.325V177.347H198.193V183.704Z" fill="#636F7D"/>
<path d="M212.615 183.704H209.745V177.347H212.615V183.704Z" fill="#636F7D"/>
<path d="M207.363 186.972H200.575V184.834H207.363V186.972Z" fill="#636F7D"/>
<path d="M198.193 186.972H195.325V184.834H198.193V186.972Z" fill="#636F7D"/>
<path d="M212.615 186.972H209.745V184.834H212.615V186.972Z" fill="#636F7D"/>
<path d="M209.742 163.334V174.704C209.742 174.704 204.147 174.704 203.969 174.704C203.79 174.704 198.195 174.704 198.195 174.704V163.334L203.969 155.493L209.742 163.334Z" stroke="#636F7D" stroke-miterlimit="10" stroke-linecap="round" stroke-linejoin="round"/>
<path d="M190.014 141.059H189.581V147.651H190.014V141.059Z" fill="#636F7D"/>
<path d="M191.711 143.457V143.025H187.884V143.457H191.711Z" fill="#636F7D"/>
<path d="M204.185 131.877H203.753V138.47H204.185V131.877Z" fill="#636F7D"/>
<path d="M205.882 134.276V133.844H202.056V134.276H205.882Z" fill="#636F7D"/>
<path d="M218.357 141.059H217.926V147.651H218.357V141.059Z" fill="#636F7D"/>
<path d="M220.055 143.457V143.025H216.228V143.457H220.055Z" fill="#636F7D"/>
<path d="M191.929 158.17H196.794" stroke="#636F7D" stroke-miterlimit="10" stroke-linecap="round" stroke-linejoin="round"/>
<path d="M211.15 158.17H216.016" stroke="#636F7D" stroke-miterlimit="10" stroke-linecap="round" stroke-linejoin="round"/>
<path d="M179.139 256.001H228.799V293.781H179.139V256.001Z" stroke="#636F7D" stroke-miterlimit="10" stroke-linecap="round" stroke-linejoin="round"/>
<path d="M188.428 231.231H219.51V256.001H188.428V231.231Z" stroke="#636F7D" stroke-miterlimit="10" stroke-linecap="round" stroke-linejoin="round"/>
<path d="M188.428 227.31H219.51V231.231H188.428V227.31Z" stroke="#636F7D" stroke-miterlimit="10" stroke-linecap="round" stroke-linejoin="round"/>
<path d="M188.428 212.163H219.51V227.31H188.428V212.163Z" stroke="#636F7D" stroke-miterlimit="10" stroke-linecap="round" stroke-linejoin="round"/>
<path d="M188.428 208.298H219.51V212.106H188.428V208.298Z" stroke="#636F7D" stroke-miterlimit="10" stroke-linecap="round" stroke-linejoin="round"/>
<path d="M188.428 193.151H219.51V208.298H188.428V193.151Z" stroke="#636F7D" stroke-miterlimit="10" stroke-linecap="round" stroke-linejoin="round"/>
<path d="M188.428 189.286H219.51V193.094H188.428V189.286Z" stroke="#636F7D" stroke-miterlimit="10" stroke-linecap="round" stroke-linejoin="round"/>
<path d="M221.061 163.334V189.288H186.878V163.334H198.195V174.704C198.195 174.704 203.79 174.704 203.969 174.704C204.147 174.704 209.742 174.704 209.742 174.704V163.334H221.061Z" stroke="#636F7D" stroke-miterlimit="10" stroke-linecap="round" stroke-linejoin="round"/>
<path d="M190.326 147.651H189.268L186.88 163.334H192.716L190.326 147.651Z" stroke="#636F7D" stroke-miterlimit="10" stroke-linecap="round" stroke-linejoin="round"/>
<path d="M218.669 147.651H217.612L215.224 163.334H221.058L218.669 147.651Z" stroke="#636F7D" stroke-miterlimit="10" stroke-linecap="round" stroke-linejoin="round"/>
<path d="M212.615 163.334H209.742L203.969 155.493L198.195 163.334H195.324L202.404 138.47H205.534L212.615 163.334Z" stroke="#636F7D" stroke-miterlimit="10" stroke-linecap="round" stroke-linejoin="round"/>
<path d="M339.351 267.286V271.797C321.073 270.621 302.637 270.022 284.067 270.022C265.497 270.022 247.069 270.621 228.798 271.797V267.286H339.351Z" fill="#636F7D"/>
<path d="M228.798 265.15H339.35V263.486H228.798V265.15Z" fill="#636F7D"/>
<path d="M21.9946 267.289H179.139V263.486H21.9946V267.289Z" stroke="#636F7D" stroke-miterlimit="10" stroke-linecap="round" stroke-linejoin="round"/>
<path d="M21.9947 272.753H179.139V267.289H21.9947V272.753Z" fill="#636F7D"/>
<path d="M104.407 259.654C104.407 261.773 102.688 263.486 100.567 263.486C98.4456 263.486 96.7263 261.773 96.7263 259.654C96.7263 257.538 98.4456 255.823 100.567 255.823C102.688 255.823 104.407 257.538 104.407 259.654Z" fill="#636F7D"/>
<path d="M188.428 191.191C188.428 191.191 165.854 238.775 101.585 256.001" stroke="#636F7D" stroke-miterlimit="10" stroke-linecap="round" stroke-linejoin="round"/>
<path d="M20.5651 238.715C20.5651 238.715 49.1445 259.949 98.5968 256.549" stroke="#636F7D" stroke-miterlimit="10" stroke-linecap="round" stroke-linejoin="round"/>
<path d="M173.76 212.106V267.289" stroke="#636F7D" stroke-miterlimit="10" stroke-linecap="round" stroke-linejoin="round"/>
<path d="M163.412 267.286V222.655" stroke="#636F7D" stroke-miterlimit="10" stroke-linecap="round" stroke-linejoin="round"/>
<path d="M153.066 267.286V231.238" stroke="#636F7D" stroke-miterlimit="10" stroke-linecap="round" stroke-linejoin="round"/>
<path d="M142.719 267.286V238.324" stroke="#636F7D" stroke-miterlimit="10" stroke-linecap="round" stroke-linejoin="round"/>
<path d="M132.373 267.286V244.189" stroke="#636F7D" stroke-miterlimit="10" stroke-linecap="round" stroke-linejoin="round"/>
<path d="M122.02 267.286V249.022" stroke="#636F7D" stroke-miterlimit="10" stroke-linecap="round" stroke-linejoin="round"/>
<path d="M111.673 267.286V252.944" stroke="#636F7D" stroke-miterlimit="10" stroke-linecap="round" stroke-linejoin="round"/>
<path d="M27.3728 267.286V242.843" stroke="#636F7D" stroke-miterlimit="10" stroke-linecap="round" stroke-linejoin="round"/>
<path d="M37.7197 267.286V247.633" stroke="#636F7D" stroke-miterlimit="10" stroke-linecap="round" stroke-linejoin="round"/>
<path d="M48.0655 267.286V251.247" stroke="#636F7D" stroke-miterlimit="10" stroke-linecap="round" stroke-linejoin="round"/>
<path d="M58.4122 267.286V253.885" stroke="#636F7D" stroke-miterlimit="10" stroke-linecap="round" stroke-linejoin="round"/>
<path d="M68.7589 267.286V255.659" stroke="#636F7D" stroke-miterlimit="10" stroke-linecap="round" stroke-linejoin="round"/>
<path d="M79.1114 267.286V256.657" stroke="#636F7D" stroke-miterlimit="10" stroke-linecap="round" stroke-linejoin="round"/>
<path d="M89.4581 267.286V256.907" stroke="#636F7D" stroke-miterlimit="10" stroke-linecap="round" stroke-linejoin="round"/>
<path d="M21.9926 255.645V293.78H0.5V255.645H1.92848V235.208H2.35001L5.3865 231.765H17.1051L20.1416 235.208H20.5641V255.645H21.9926Z" fill="white"/>
<path d="M0.5 255.645H21.9945V293.78H0.5V255.645Z" stroke="#636F7D" stroke-miterlimit="10" stroke-linecap="round" stroke-linejoin="round"/>
<path d="M1.92858 235.211H20.5652V255.645H1.92858V235.211Z" stroke="#636F7D" stroke-miterlimit="10" stroke-linecap="round" stroke-linejoin="round"/>
<path d="M5.38952 231.765H17.1052L20.5652 235.211H1.92858L5.38952 231.765Z" stroke="#636F7D" stroke-miterlimit="10" stroke-linecap="round" stroke-linejoin="round"/>
<path d="M339.35 256.001V293.781H389.011V256.001H379.721V189.288H381.272V163.334L378.878 147.651H377.821L376.221 158.173H371.354L365.745 138.47H362.616L357.006 158.173H352.14L350.54 147.651H349.482L347.089 163.334V189.288H348.639V256.001H339.35Z" fill="white"/>
<path d="M361.918 238.757V249.449H366.441V238.757C366.441 237.511 365.427 236.499 364.184 236.499C362.933 236.499 361.918 237.511 361.918 238.757Z" fill="#636F7D"/>
<path d="M362.76 220.591V227.31H365.601V220.591C365.601 219.808 364.964 219.172 364.182 219.172C363.397 219.172 362.76 219.808 362.76 220.591Z" fill="#636F7D"/>
<path d="M355.972 220.591V227.31H358.813V220.591C358.813 219.808 358.175 219.172 357.395 219.172C356.608 219.172 355.972 219.808 355.972 220.591Z" fill="#636F7D"/>
<path d="M369.548 220.591V227.31H372.389V220.591C372.389 219.808 371.752 219.172 370.97 219.172C370.184 219.172 369.548 219.808 369.548 220.591Z" fill="#636F7D"/>
<path d="M362.76 201.581V208.298H365.601V201.581C365.601 200.796 364.964 200.16 364.182 200.16C363.397 200.16 362.76 200.796 362.76 201.581Z" fill="#636F7D"/>
<path d="M362.76 167.232V171.085H365.601V167.232C365.601 166.448 364.964 165.811 364.182 165.811C363.397 165.811 362.76 166.448 362.76 167.232Z" fill="#636F7D"/>
<path d="M355.972 201.581V208.298H358.813V201.581C358.813 200.796 358.175 200.16 357.395 200.16C356.608 200.16 355.972 200.796 355.972 201.581Z" fill="#636F7D"/>
<path d="M369.548 201.581V208.298H372.389V201.581C372.389 200.796 371.752 200.16 370.97 200.16C370.184 200.16 369.548 200.796 369.548 201.581Z" fill="#636F7D"/>
<path d="M370.164 238.776H371.713V235.864H370.164V238.776Z" fill="#636F7D"/>
<path d="M370.164 243.616H371.713V240.706H370.164V243.616Z" fill="#636F7D"/>
<path d="M363.406 234.974H364.955V233.072H363.406V234.974Z" fill="#636F7D"/>
<path d="M370.164 248.456H371.713V245.547H370.164V248.456Z" fill="#636F7D"/>
<path d="M356.617 238.776H358.166V235.864H356.617V238.776Z" fill="#636F7D"/>
<path d="M356.617 243.616H358.166V240.706H356.617V243.616Z" fill="#636F7D"/>
<path d="M356.617 248.456H358.166V245.547H356.617V248.456Z" fill="#636F7D"/>
<path d="M347.091 176.253H381.269V174.706H347.091V176.253Z" stroke="#636F7D" stroke-miterlimit="10" stroke-linecap="round" stroke-linejoin="round"/>
<path d="M375.434 163.334V256.001" stroke="#636F7D" stroke-miterlimit="10" stroke-linecap="round" stroke-linejoin="round"/>
<path d="M352.569 163.334V256.001" stroke="#636F7D" stroke-miterlimit="10" stroke-linecap="round" stroke-linejoin="round"/>
<path d="M360.786 183.704H367.574V177.347H360.786V183.704Z" fill="#636F7D"/>
<path d="M369.956 183.704H372.824V177.347H369.956V183.704Z" fill="#636F7D"/>
<path d="M355.535 183.704H358.404V177.347H355.535V183.704Z" fill="#636F7D"/>
<path d="M360.786 186.972H367.574V184.834H360.786V186.972Z" fill="#636F7D"/>
<path d="M369.956 186.972H372.824V184.834H369.956V186.972Z" fill="#636F7D"/>
<path d="M355.535 186.972H358.404V184.834H355.535V186.972Z" fill="#636F7D"/>
<path d="M358.407 163.334V174.704C358.407 174.704 364.002 174.704 364.18 174.704C364.359 174.704 369.954 174.704 369.954 174.704V163.334L364.18 155.493L358.407 163.334Z" stroke="#636F7D" stroke-miterlimit="10" stroke-linecap="round" stroke-linejoin="round"/>
<path d="M378.135 141.059H378.568V147.651H378.135V141.059Z" fill="#636F7D"/>
<path d="M349.792 141.059H350.224V147.651H349.792V141.059Z" fill="#636F7D"/>
<path d="M376.221 158.17H371.354" stroke="#636F7D" stroke-miterlimit="10" stroke-linecap="round" stroke-linejoin="round"/>
<path d="M356.999 158.17H352.134" stroke="#636F7D" stroke-miterlimit="10" stroke-linecap="round" stroke-linejoin="round"/>
<path d="M389.01 256.001H339.349V293.781H389.01V256.001Z" stroke="#636F7D" stroke-miterlimit="10" stroke-linecap="round" stroke-linejoin="round"/>
<path d="M379.721 231.231H348.639V256.001H379.721V231.231Z" stroke="#636F7D" stroke-miterlimit="10" stroke-linecap="round" stroke-linejoin="round"/>
<path d="M379.721 227.31H348.639V231.231H379.721V227.31Z" stroke="#636F7D" stroke-miterlimit="10" stroke-linecap="round" stroke-linejoin="round"/>
<path d="M379.721 212.163H348.639V227.31H379.721V212.163Z" stroke="#636F7D" stroke-miterlimit="10" stroke-linecap="round" stroke-linejoin="round"/>
<path d="M379.721 208.298H348.639V212.106H379.721V208.298Z" stroke="#636F7D" stroke-miterlimit="10" stroke-linecap="round" stroke-linejoin="round"/>
<path d="M379.721 193.151H348.639V208.298H379.721V193.151Z" stroke="#636F7D" stroke-miterlimit="10" stroke-linecap="round" stroke-linejoin="round"/>
<path d="M379.721 189.286H348.639V193.094H379.721V189.286Z" stroke="#636F7D" stroke-miterlimit="10" stroke-linecap="round" stroke-linejoin="round"/>
<path d="M347.088 163.334V189.288H381.271V163.334H369.954V174.704C369.954 174.704 364.359 174.704 364.18 174.704C364.002 174.704 358.407 174.704 358.407 174.704V163.334H347.088Z" stroke="#636F7D" stroke-miterlimit="10" stroke-linecap="round" stroke-linejoin="round"/>
<path d="M377.823 147.651H378.881L381.269 163.334H375.434L377.823 147.651Z" stroke="#636F7D" stroke-miterlimit="10" stroke-linecap="round" stroke-linejoin="round"/>
<path d="M349.48 147.651H350.537L352.926 163.334H347.091L349.48 147.651Z" stroke="#636F7D" stroke-miterlimit="10" stroke-linecap="round" stroke-linejoin="round"/>
<path d="M355.534 163.334H358.407L364.18 155.493L369.954 163.334H372.826L365.745 138.47H362.615L355.534 163.334Z" stroke="#636F7D" stroke-miterlimit="10" stroke-linecap="round" stroke-linejoin="round"/>
<path d="M376.58 143.516V143.08H380.45V143.516H376.58Z" fill="#636F7D"/>
<path d="M363.961 131.803H364.398V138.473H363.961V131.803Z" fill="#636F7D"/>
<path d="M362.245 134.229V133.793H366.116V134.229H362.245Z" fill="#636F7D"/>
<path d="M347.912 143.516V143.08H351.782V143.516H347.912Z" fill="#636F7D"/>
<path d="M546.154 267.289H389.01V263.486H546.154V267.289Z" stroke="#636F7D" stroke-miterlimit="10" stroke-linecap="round" stroke-linejoin="round"/>
<path d="M546.154 272.753H389.01V267.289H546.154V272.753Z" fill="#636F7D"/>
<path d="M463.742 259.654C463.742 261.773 465.46 263.486 467.582 263.486C469.703 263.486 471.422 261.773 471.422 259.654C471.422 257.538 469.703 255.823 467.582 255.823C465.46 255.823 463.742 257.538 463.742 259.654Z" fill="#636F7D"/>
<path d="M379.721 191.191C379.721 191.191 402.296 238.775 466.563 256.001" stroke="#636F7D" stroke-miterlimit="10" stroke-linecap="round" stroke-linejoin="round"/>
<path d="M547.584 238.715C547.584 238.715 519.004 259.949 469.552 256.549" stroke="#636F7D" stroke-miterlimit="10" stroke-linecap="round" stroke-linejoin="round"/>
<path d="M394.39 212.106V267.289" stroke="#636F7D" stroke-miterlimit="10" stroke-linecap="round" stroke-linejoin="round"/>
<path d="M404.737 222.655V267.286" stroke="#636F7D" stroke-miterlimit="10" stroke-linecap="round" stroke-linejoin="round"/>
<path d="M415.084 231.238V267.286" stroke="#636F7D" stroke-miterlimit="10" stroke-linecap="round" stroke-linejoin="round"/>
<path d="M425.43 238.324V267.286" stroke="#636F7D" stroke-miterlimit="10" stroke-linecap="round" stroke-linejoin="round"/>
<path d="M435.776 244.189V267.286" stroke="#636F7D" stroke-miterlimit="10" stroke-linecap="round" stroke-linejoin="round"/>
<path d="M446.129 249.022V267.286" stroke="#636F7D" stroke-miterlimit="10" stroke-linecap="round" stroke-linejoin="round"/>
<path d="M456.476 252.944V267.286" stroke="#636F7D" stroke-miterlimit="10" stroke-linecap="round" stroke-linejoin="round"/>
<path d="M540.777 242.843V267.286" stroke="#636F7D" stroke-miterlimit="10" stroke-linecap="round" stroke-linejoin="round"/>
<path d="M530.43 247.633V267.286" stroke="#636F7D" stroke-miterlimit="10" stroke-linecap="round" stroke-linejoin="round"/>
<path d="M520.082 251.247V267.286" stroke="#636F7D" stroke-miterlimit="10" stroke-linecap="round" stroke-linejoin="round"/>
<path d="M509.737 253.885V267.286" stroke="#636F7D" stroke-miterlimit="10" stroke-linecap="round" stroke-linejoin="round"/>
<path d="M499.391 255.659V267.286" stroke="#636F7D" stroke-miterlimit="10" stroke-linecap="round" stroke-linejoin="round"/>
<path d="M489.037 256.657V267.286" stroke="#636F7D" stroke-miterlimit="10" stroke-linecap="round" stroke-linejoin="round"/>
<path d="M478.691 256.907V267.286" stroke="#636F7D" stroke-miterlimit="10" stroke-linecap="round" stroke-linejoin="round"/>
<path d="M348.639 189.288V193.807H219.509V189.288H348.639Z" fill="#636F7D"/>
<path d="M278.72 189.23H221.058V182.669H278.72V189.23Z" stroke="#636F7D" stroke-miterlimit="10" stroke-linecap="round" stroke-linejoin="round"/>
<path d="M249.423 189.23H243.298V182.669H249.423V189.23Z" fill="#636F7D"/>
<path d="M289.43 189.23H347.091V182.669H289.43V189.23Z" stroke="#636F7D" stroke-miterlimit="10" stroke-linecap="round" stroke-linejoin="round"/>
<path d="M318.726 189.23H324.851V182.669H318.726V189.23Z" fill="#636F7D"/>
<path d="M289.434 178.481V189.288H278.716V178.481H279.788V180.884H282.645V180.619L283.531 177.013H284.623L285.503 180.619V180.884H288.362V178.481H289.434Z" fill="#636F7D"/>
<path d="M546.157 255.645V293.781H567.65V255.645H566.22V235.208H565.799L562.762 231.765H551.044L548.007 235.208H547.586V255.645H546.157Z" fill="white"/>
<path d="M567.65 255.645H546.154V293.781H567.65V255.645Z" stroke="#636F7D" stroke-miterlimit="10" stroke-linecap="round" stroke-linejoin="round"/>
<path d="M566.22 235.211H547.584V255.645H566.22V235.211Z" stroke="#636F7D" stroke-miterlimit="10" stroke-linecap="round" stroke-linejoin="round"/>
<path d="M562.759 231.765H551.044L547.584 235.211H566.22L562.759 231.765Z" stroke="#636F7D" stroke-miterlimit="10" stroke-linecap="round" stroke-linejoin="round"/>
<path d="M455.086 275.137H476.411V234.476H455.086V275.137Z" fill="white"/>
<path d="M455.086 275.137H476.411V234.476H455.086V275.137Z" stroke="#636F7D" stroke-miterlimit="10" stroke-linecap="round" stroke-linejoin="round"/>
<path d="M437.639 275.137H455.086V244.157H437.639V275.137Z" fill="white"/>
<path d="M437.639 275.137H455.086V244.157H437.639V275.137Z" stroke="#636F7D" stroke-miterlimit="10" stroke-linecap="round" stroke-linejoin="round"/>
<path d="M437.639 257.711H455.086V249.966H437.639V257.711Z" fill="#636F7D"/>
<path d="M455.086 249.966H476.411V244.157H455.086V249.966Z" fill="#636F7D"/>
<path d="M476.411 249.966H505.489V275.137H476.411V249.966Z" fill="white"/>
<path d="M476.411 249.966H505.489V275.137H476.411V249.966Z" stroke="#636F7D" stroke-miterlimit="10" stroke-linecap="round" stroke-linejoin="round"/>
<path d="M424.069 274.872L427.949 286.248L429.164 289.826L430.761 294.5H510.491L513.641 289.826L516.052 286.248L528.752 267.392H501.974L485.538 274.872H424.069Z" fill="white"/>
<path d="M424.069 274.872L427.949 286.248L429.164 289.826L430.761 294.5H510.491L513.641 289.826L516.052 286.248L528.752 267.392H501.974L485.538 274.872H424.069Z" stroke="#636F7D" stroke-miterlimit="10" stroke-linecap="round" stroke-linejoin="round"/>
<path d="M482.226 261.584H505.489V255.775H482.226V261.584Z" fill="#636F7D"/>
<path d="M427.946 286.755L429.15 290.627H512.795L515.182 286.755H427.946Z" fill="#636F7D"/>
</g>
</svg>
