<svg width="256" height="54" viewBox="0 0 256 54" fill="none" xmlns="http://www.w3.org/2000/svg">
<rect width="256" height="54" rx="8" fill="#FFE852"/>
<path d="M26.9432 15.1477H25.1705C25.1023 14.7689 24.9754 14.4356 24.7898 14.1477C24.6042 13.8598 24.3769 13.6155 24.108 13.4148C23.839 13.214 23.5379 13.0625 23.2045 12.9602C22.875 12.858 22.5246 12.8068 22.1534 12.8068C21.483 12.8068 20.8826 12.9754 20.3523 13.3125C19.8258 13.6496 19.4091 14.1439 19.1023 14.7955C18.7992 15.447 18.6477 16.2424 18.6477 17.1818C18.6477 18.1288 18.7992 18.928 19.1023 19.5795C19.4091 20.2311 19.8277 20.7235 20.358 21.0568C20.8883 21.3902 21.4848 21.5568 22.1477 21.5568C22.5152 21.5568 22.8636 21.5076 23.1932 21.4091C23.5265 21.3068 23.8277 21.1572 24.0966 20.9602C24.3655 20.7633 24.5928 20.5227 24.7784 20.2386C24.9678 19.9508 25.0985 19.6212 25.1705 19.25L26.9432 19.2557C26.8485 19.8277 26.6648 20.3542 26.392 20.8352C26.1231 21.3125 25.7765 21.7254 25.3523 22.0739C24.9318 22.4186 24.4508 22.6856 23.9091 22.875C23.3674 23.0644 22.7765 23.1591 22.1364 23.1591C21.1288 23.1591 20.2311 22.9205 19.4432 22.4432C18.6553 21.9621 18.0341 21.2746 17.5795 20.3807C17.1288 19.4867 16.9034 18.4205 16.9034 17.1818C16.9034 15.9394 17.1307 14.8731 17.5852 13.983C18.0398 13.089 18.661 12.4034 19.4489 11.9261C20.2367 11.4451 21.1326 11.2045 22.1364 11.2045C22.7538 11.2045 23.3295 11.2936 23.8636 11.4716C24.4015 11.6458 24.8845 11.9034 25.3125 12.2443C25.7405 12.5814 26.0947 12.9943 26.375 13.483C26.6553 13.9678 26.8447 14.5227 26.9432 15.1477ZM28.419 15.7386V14.2727H35.7827V15.7386H32.9361V23H31.277V15.7386H28.419ZM40.9347 23.1761C40.0748 23.1761 39.3343 22.9924 38.7131 22.625C38.0956 22.2538 37.6184 21.733 37.2812 21.0625C36.9479 20.3883 36.7812 19.5985 36.7812 18.6932C36.7812 17.7992 36.9479 17.0114 37.2812 16.3295C37.6184 15.6477 38.0881 15.1155 38.6903 14.733C39.2964 14.3504 40.0047 14.1591 40.8153 14.1591C41.3078 14.1591 41.785 14.2405 42.2472 14.4034C42.7093 14.5663 43.1241 14.822 43.4915 15.1705C43.8589 15.5189 44.1487 15.9716 44.3608 16.5284C44.5729 17.0814 44.679 17.7538 44.679 18.5455V19.1477H37.7415V17.875H43.0142C43.0142 17.428 42.9233 17.0322 42.7415 16.6875C42.5597 16.339 42.304 16.0644 41.9744 15.8636C41.6487 15.6629 41.2661 15.5625 40.8267 15.5625C40.3494 15.5625 39.9328 15.6799 39.5767 15.9148C39.2244 16.1458 38.9517 16.4489 38.7585 16.8239C38.5691 17.1951 38.4744 17.5985 38.4744 18.0341V19.0284C38.4744 19.6117 38.5767 20.108 38.7812 20.517C38.9896 20.9261 39.2794 21.2386 39.6506 21.4545C40.0218 21.6667 40.4555 21.7727 40.9517 21.7727C41.2737 21.7727 41.5672 21.7273 41.8324 21.6364C42.0975 21.5417 42.3267 21.4015 42.5199 21.2159C42.7131 21.0303 42.8608 20.8011 42.9631 20.5284L44.571 20.8182C44.4422 21.2917 44.2112 21.7064 43.8778 22.0625C43.5483 22.4148 43.1335 22.6894 42.6335 22.8864C42.1373 23.0795 41.571 23.1761 40.9347 23.1761ZM46.5639 23V14.2727H53.6832V23H52.0185V15.7386H48.2173V23H46.5639ZM59.7159 23.1761C58.8561 23.1761 58.1155 22.9924 57.4943 22.625C56.8769 22.2538 56.3996 21.733 56.0625 21.0625C55.7292 20.3883 55.5625 19.5985 55.5625 18.6932C55.5625 17.7992 55.7292 17.0114 56.0625 16.3295C56.3996 15.6477 56.8693 15.1155 57.4716 14.733C58.0777 14.3504 58.786 14.1591 59.5966 14.1591C60.089 14.1591 60.5663 14.2405 61.0284 14.4034C61.4905 14.5663 61.9053 14.822 62.2727 15.1705C62.6402 15.5189 62.9299 15.9716 63.142 16.5284C63.3542 17.0814 63.4602 17.7538 63.4602 18.5455V19.1477H56.5227V17.875H61.7955C61.7955 17.428 61.7045 17.0322 61.5227 16.6875C61.3409 16.339 61.0852 16.0644 60.7557 15.8636C60.4299 15.6629 60.0473 15.5625 59.608 15.5625C59.1307 15.5625 58.714 15.6799 58.358 15.9148C58.0057 16.1458 57.733 16.4489 57.5398 16.8239C57.3504 17.1951 57.2557 17.5985 57.2557 18.0341V19.0284C57.2557 19.6117 57.358 20.108 57.5625 20.517C57.7708 20.9261 58.0606 21.2386 58.4318 21.4545C58.803 21.6667 59.2367 21.7727 59.733 21.7727C60.0549 21.7727 60.3485 21.7273 60.6136 21.6364C60.8788 21.5417 61.108 21.4015 61.3011 21.2159C61.4943 21.0303 61.642 20.8011 61.7443 20.5284L63.3523 20.8182C63.2235 21.2917 62.9924 21.7064 62.6591 22.0625C62.3295 22.4148 61.9148 22.6894 61.4148 22.8864C60.9186 23.0795 60.3523 23.1761 59.7159 23.1761ZM71.2599 17.9034V19.375H66.5327V17.9034H71.2599ZM67.0099 14.2727V23H65.3452V14.2727H67.0099ZM72.4474 14.2727V23H70.7884V14.2727H72.4474ZM75.9986 17.2727H78.5327C79.6009 17.2727 80.4228 17.5379 80.9986 18.0682C81.5743 18.5985 81.8622 19.2822 81.8622 20.1193C81.8622 20.6648 81.7334 21.1553 81.4759 21.5909C81.2183 22.0265 80.8414 22.3712 80.3452 22.625C79.849 22.875 79.2448 23 78.5327 23H74.7202V14.2727H76.3849V21.5341H78.5327C79.0213 21.5341 79.4228 21.4072 79.7372 21.1534C80.0516 20.8958 80.2088 20.5682 80.2088 20.1705C80.2088 19.75 80.0516 19.4072 79.7372 19.142C79.4228 18.8731 79.0213 18.7386 78.5327 18.7386H75.9986V17.2727ZM88.1378 23V11.3636H95.4332V12.875H89.8935V16.4205H95.0526V17.9261H89.8935V21.4886H95.5014V23H88.1378ZM98.983 14.2727L100.909 17.6705L102.852 14.2727H104.71L101.989 18.6364L104.733 23H102.875L100.909 19.7386L98.9489 23H97.0852L99.8011 18.6364L97.1193 14.2727H98.983ZM109.872 23.1761C109.012 23.1761 108.272 22.9924 107.651 22.625C107.033 22.2538 106.556 21.733 106.219 21.0625C105.885 20.3883 105.719 19.5985 105.719 18.6932C105.719 17.7992 105.885 17.0114 106.219 16.3295C106.556 15.6477 107.026 15.1155 107.628 14.733C108.234 14.3504 108.942 14.1591 109.753 14.1591C110.245 14.1591 110.723 14.2405 111.185 14.4034C111.647 14.5663 112.062 14.822 112.429 15.1705C112.796 15.5189 113.086 15.9716 113.298 16.5284C113.51 17.0814 113.616 17.7538 113.616 18.5455V19.1477H106.679V17.875H111.952C111.952 17.428 111.861 17.0322 111.679 16.6875C111.497 16.339 111.241 16.0644 110.912 15.8636C110.586 15.6629 110.204 15.5625 109.764 15.5625C109.287 15.5625 108.87 15.6799 108.514 15.9148C108.162 16.1458 107.889 16.4489 107.696 16.8239C107.507 17.1951 107.412 17.5985 107.412 18.0341V19.0284C107.412 19.6117 107.514 20.108 107.719 20.517C107.927 20.9261 108.217 21.2386 108.588 21.4545C108.959 21.6667 109.393 21.7727 109.889 21.7727C110.211 21.7727 110.505 21.7273 110.77 21.6364C111.035 21.5417 111.264 21.4015 111.457 21.2159C111.651 21.0303 111.798 20.8011 111.901 20.5284L113.509 20.8182C113.38 21.2917 113.149 21.7064 112.815 22.0625C112.486 22.4148 112.071 22.6894 111.571 22.8864C111.075 23.0795 110.509 23.1761 109.872 23.1761ZM119.178 23.1761C118.333 23.1761 117.606 22.9848 116.996 22.6023C116.39 22.2159 115.924 21.6837 115.598 21.0057C115.272 20.3277 115.109 19.5511 115.109 18.6761C115.109 17.7898 115.276 17.0076 115.609 16.3295C115.943 15.6477 116.412 15.1155 117.018 14.733C117.625 14.3504 118.339 14.1591 119.161 14.1591C119.823 14.1591 120.414 14.2822 120.933 14.5284C121.452 14.7708 121.871 15.1117 122.189 15.5511C122.511 15.9905 122.702 16.5038 122.763 17.0909H121.109C121.018 16.6818 120.81 16.3295 120.484 16.0341C120.162 15.7386 119.731 15.5909 119.189 15.5909C118.715 15.5909 118.301 15.7159 117.945 15.9659C117.592 16.2121 117.318 16.5644 117.121 17.0227C116.924 17.4773 116.825 18.0152 116.825 18.6364C116.825 19.2727 116.922 19.822 117.115 20.2841C117.308 20.7462 117.581 21.1042 117.933 21.358C118.289 21.6117 118.708 21.7386 119.189 21.7386C119.511 21.7386 119.803 21.6799 120.064 21.5625C120.329 21.4413 120.551 21.2689 120.729 21.0455C120.911 20.822 121.037 20.553 121.109 20.2386H122.763C122.702 20.803 122.518 21.3068 122.212 21.75C121.905 22.1932 121.494 22.5417 120.979 22.7955C120.467 23.0492 119.867 23.1761 119.178 23.1761ZM130.108 19.3807V14.2727H131.812V23H130.142V21.4886H130.051C129.85 21.9545 129.528 22.3428 129.085 22.6534C128.646 22.9602 128.098 23.1136 127.443 23.1136C126.883 23.1136 126.386 22.9905 125.955 22.7443C125.527 22.4943 125.189 22.125 124.943 21.6364C124.701 21.1477 124.58 20.5436 124.58 19.8239V14.2727H126.278V19.6193C126.278 20.214 126.443 20.6875 126.773 21.0398C127.102 21.392 127.53 21.5682 128.057 21.5682C128.375 21.5682 128.691 21.4886 129.006 21.3295C129.324 21.1705 129.587 20.9299 129.795 20.608C130.008 20.286 130.112 19.8769 130.108 19.3807ZM138.169 14.2727V15.6364H133.402V14.2727H138.169ZM134.68 12.1818H136.379V20.4375C136.379 20.767 136.429 21.0152 136.527 21.1818C136.625 21.3447 136.752 21.4564 136.908 21.517C137.067 21.5739 137.239 21.6023 137.425 21.6023C137.561 21.6023 137.68 21.5928 137.783 21.5739C137.885 21.5549 137.964 21.5398 138.021 21.5284L138.328 22.9318C138.23 22.9697 138.089 23.0076 137.908 23.0455C137.726 23.0871 137.499 23.1098 137.226 23.1136C136.779 23.1212 136.362 23.0417 135.976 22.875C135.589 22.7083 135.277 22.4508 135.038 22.1023C134.8 21.7538 134.68 21.3163 134.68 20.7898V12.1818ZM140.048 23V14.2727H141.747V23H140.048ZM140.906 12.9261C140.611 12.9261 140.357 12.8277 140.145 12.6307C139.937 12.4299 139.832 12.1913 139.832 11.9148C139.832 11.6345 139.937 11.3958 140.145 11.1989C140.357 10.9981 140.611 10.8977 140.906 10.8977C141.202 10.8977 141.454 10.9981 141.662 11.1989C141.874 11.3958 141.98 11.6345 141.98 11.9148C141.98 12.1913 141.874 12.4299 141.662 12.6307C141.454 12.8277 141.202 12.9261 140.906 12.9261ZM151.499 14.2727L148.334 23H146.516L143.345 14.2727H145.169L147.379 20.9886H147.47L149.675 14.2727H151.499ZM156.56 23.1761C155.7 23.1761 154.959 22.9924 154.338 22.625C153.721 22.2538 153.243 21.733 152.906 21.0625C152.573 20.3883 152.406 19.5985 152.406 18.6932C152.406 17.7992 152.573 17.0114 152.906 16.3295C153.243 15.6477 153.713 15.1155 154.315 14.733C154.921 14.3504 155.63 14.1591 156.44 14.1591C156.933 14.1591 157.41 14.2405 157.872 14.4034C158.334 14.5663 158.749 14.822 159.116 15.1705C159.484 15.5189 159.774 15.9716 159.986 16.5284C160.198 17.0814 160.304 17.7538 160.304 18.5455V19.1477H153.366V17.875H158.639C158.639 17.428 158.548 17.0322 158.366 16.6875C158.185 16.339 157.929 16.0644 157.599 15.8636C157.274 15.6629 156.891 15.5625 156.452 15.5625C155.974 15.5625 155.558 15.6799 155.202 15.9148C154.849 16.1458 154.577 16.4489 154.384 16.8239C154.194 17.1951 154.099 17.5985 154.099 18.0341V19.0284C154.099 19.6117 154.202 20.108 154.406 20.517C154.615 20.9261 154.904 21.2386 155.276 21.4545C155.647 21.6667 156.08 21.7727 156.577 21.7727C156.899 21.7727 157.192 21.7273 157.457 21.6364C157.723 21.5417 157.952 21.4015 158.145 21.2159C158.338 21.0303 158.486 20.8011 158.588 20.5284L160.196 20.8182C160.067 21.2917 159.836 21.7064 159.503 22.0625C159.173 22.4148 158.759 22.6894 158.259 22.8864C157.762 23.0795 157.196 23.1761 156.56 23.1761ZM166.56 11.3636H168.69L172.395 20.4091H172.531L176.236 11.3636H178.366V23H176.696V14.5795H176.588L173.156 22.983H171.77L168.338 14.5739H168.23V23H166.56V11.3636ZM180.919 23V11.3636H185.18C186.006 11.3636 186.69 11.5 187.232 11.7727C187.773 12.0417 188.179 12.4072 188.447 12.8693C188.716 13.3277 188.851 13.8447 188.851 14.4205C188.851 14.9053 188.762 15.3144 188.584 15.6477C188.406 15.9773 188.167 16.2424 187.868 16.4432C187.572 16.6402 187.247 16.7841 186.891 16.875V16.9886C187.277 17.0076 187.654 17.1326 188.021 17.3636C188.393 17.5909 188.699 17.9148 188.942 18.3352C189.184 18.7557 189.305 19.267 189.305 19.8693C189.305 20.464 189.165 20.9981 188.885 21.4716C188.608 21.9413 188.18 22.3144 187.601 22.5909C187.021 22.8636 186.281 23 185.379 23H180.919ZM182.675 21.4943H185.209C186.05 21.4943 186.652 21.3314 187.016 21.0057C187.379 20.6799 187.561 20.2727 187.561 19.7841C187.561 19.4167 187.468 19.0795 187.283 18.7727C187.097 18.4659 186.832 18.2216 186.487 18.0398C186.146 17.858 185.741 17.767 185.271 17.767H182.675V21.4943ZM182.675 16.3977H185.027C185.421 16.3977 185.775 16.322 186.089 16.1705C186.408 16.0189 186.66 15.8068 186.845 15.5341C187.035 15.2576 187.129 14.9318 187.129 14.5568C187.129 14.0758 186.961 13.6723 186.624 13.3466C186.286 13.0208 185.769 12.858 185.072 12.858H182.675V16.3977ZM192.371 23H190.507L194.695 11.3636H196.723L200.911 23H199.047L195.757 13.4773H195.666L192.371 23ZM192.683 18.4432H198.729V19.9205H192.683V18.4432ZM17.2784 42V30.3636H19.0341V35.9205H19.1761L24.0568 30.3636H26.267L21.5739 35.6023L26.2841 42H24.1705L20.4091 36.8011L19.0341 38.3807V42H17.2784ZM28.3139 42V33.2727H30.0128V42H28.3139ZM29.1719 31.9261C28.8764 31.9261 28.6226 31.8277 28.4105 31.6307C28.2022 31.4299 28.098 31.1913 28.098 30.9148C28.098 30.6345 28.2022 30.3958 28.4105 30.1989C28.6226 29.9981 28.8764 29.8977 29.1719 29.8977C29.4673 29.8977 29.7192 29.9981 29.9276 30.1989C30.1397 30.3958 30.2457 30.6345 30.2457 30.9148C30.2457 31.1913 30.1397 31.4299 29.9276 31.6307C29.7192 31.8277 29.4673 31.9261 29.1719 31.9261ZM33.9972 36.8182V42H32.2983V33.2727H33.929V34.6932H34.0369C34.2377 34.2311 34.5521 33.8598 34.9801 33.5795C35.4119 33.2992 35.9555 33.1591 36.6108 33.1591C37.2055 33.1591 37.7263 33.2841 38.1733 33.5341C38.6203 33.7803 38.9669 34.1477 39.2131 34.6364C39.4593 35.125 39.5824 35.7292 39.5824 36.4489V42H37.8835V36.6534C37.8835 36.0208 37.7188 35.5265 37.3892 35.1705C37.0597 34.8106 36.607 34.6307 36.0312 34.6307C35.6373 34.6307 35.2869 34.7159 34.9801 34.8864C34.6771 35.0568 34.4366 35.3068 34.2585 35.6364C34.0843 35.9621 33.9972 36.3561 33.9972 36.8182ZM45.5199 45.4545C44.8267 45.4545 44.2301 45.3636 43.7301 45.1818C43.2339 45 42.8286 44.7595 42.5142 44.4602C42.1998 44.161 41.965 43.8333 41.8097 43.4773L43.2699 42.875C43.3722 43.0417 43.5085 43.2178 43.679 43.4034C43.8532 43.5928 44.0881 43.7538 44.3835 43.8864C44.6828 44.0189 45.0672 44.0852 45.5369 44.0852C46.1809 44.0852 46.7131 43.928 47.1335 43.6136C47.554 43.303 47.7642 42.8068 47.7642 42.125V40.4091H47.6562C47.554 40.5947 47.4063 40.8011 47.2131 41.0284C47.0237 41.2557 46.7623 41.4527 46.429 41.6193C46.0956 41.786 45.6619 41.8693 45.1278 41.8693C44.4384 41.8693 43.8172 41.7083 43.2642 41.3864C42.715 41.0606 42.2794 40.5814 41.9574 39.9489C41.6392 39.3125 41.4801 38.5303 41.4801 37.6023C41.4801 36.6742 41.6373 35.8788 41.9517 35.2159C42.2699 34.553 42.7055 34.0455 43.2585 33.6932C43.8116 33.3371 44.4384 33.1591 45.1392 33.1591C45.6809 33.1591 46.1184 33.25 46.4517 33.4318C46.785 33.6098 47.0445 33.8182 47.2301 34.0568C47.4195 34.2955 47.5653 34.5057 47.6676 34.6875H47.7926V33.2727H49.4574V42.1932C49.4574 42.9432 49.2831 43.5587 48.9347 44.0398C48.5862 44.5208 48.1146 44.8769 47.5199 45.108C46.929 45.339 46.2623 45.4545 45.5199 45.4545ZM45.5028 40.4602C45.9915 40.4602 46.4044 40.3466 46.7415 40.1193C47.0824 39.8883 47.34 39.5587 47.5142 39.1307C47.6922 38.6989 47.7812 38.1818 47.7812 37.5795C47.7812 36.9924 47.6941 36.4754 47.5199 36.0284C47.3456 35.5814 47.09 35.233 46.7528 34.983C46.4157 34.7292 45.9991 34.6023 45.5028 34.6023C44.9915 34.6023 44.5653 34.7348 44.2244 35C43.8835 35.2614 43.6259 35.6174 43.4517 36.0682C43.2813 36.5189 43.196 37.0227 43.196 37.5795C43.196 38.1515 43.2831 38.6534 43.4574 39.0852C43.6316 39.517 43.8892 39.8542 44.2301 40.0966C44.5748 40.339 44.9991 40.4602 45.5028 40.4602ZM58.2756 35.4034L56.7358 35.6761C56.6714 35.4792 56.5691 35.2917 56.429 35.1136C56.2926 34.9356 56.107 34.7898 55.8722 34.6761C55.6373 34.5625 55.3438 34.5057 54.9915 34.5057C54.5104 34.5057 54.1089 34.6136 53.7869 34.8295C53.465 35.0417 53.304 35.3163 53.304 35.6534C53.304 35.9451 53.4119 36.1799 53.6278 36.358C53.8438 36.536 54.1922 36.6818 54.6733 36.7955L56.0597 37.1136C56.8627 37.2992 57.4612 37.5852 57.8551 37.9716C58.2491 38.358 58.446 38.8598 58.446 39.4773C58.446 40 58.2945 40.4659 57.9915 40.875C57.6922 41.2803 57.2737 41.5985 56.7358 41.8295C56.2017 42.0606 55.5824 42.1761 54.8778 42.1761C53.9006 42.1761 53.1032 41.9678 52.4858 41.5511C51.8684 41.1307 51.4896 40.5341 51.3494 39.7614L52.9915 39.5114C53.0938 39.9394 53.304 40.2633 53.6222 40.483C53.9403 40.6989 54.3551 40.8068 54.8665 40.8068C55.4233 40.8068 55.8684 40.6913 56.2017 40.4602C56.535 40.2254 56.7017 39.9394 56.7017 39.6023C56.7017 39.3295 56.5994 39.1004 56.3949 38.9148C56.1941 38.7292 55.8854 38.589 55.4688 38.4943L53.9915 38.1705C53.1771 37.9848 52.5748 37.6894 52.1847 37.2841C51.7983 36.8788 51.6051 36.3655 51.6051 35.7443C51.6051 35.2292 51.7491 34.7784 52.0369 34.392C52.3248 34.0057 52.7225 33.7045 53.2301 33.4886C53.7377 33.2689 54.3191 33.1591 54.9744 33.1591C55.9176 33.1591 56.66 33.3636 57.2017 33.7727C57.7434 34.178 58.1013 34.7216 58.2756 35.4034ZM64.3878 33.2727V34.6364H59.6207V33.2727H64.3878ZM60.8991 31.1818H62.598V39.4375C62.598 39.767 62.6473 40.0152 62.7457 40.1818C62.8442 40.3447 62.9711 40.4564 63.1264 40.517C63.2855 40.5739 63.4579 40.6023 63.6435 40.6023C63.7798 40.6023 63.8991 40.5928 64.0014 40.5739C64.1037 40.5549 64.1832 40.5398 64.2401 40.5284L64.5469 41.9318C64.4484 41.9697 64.3082 42.0076 64.1264 42.0455C63.9446 42.0871 63.7173 42.1098 63.4446 42.1136C62.9976 42.1212 62.581 42.0417 62.1946 41.875C61.8082 41.7083 61.4957 41.4508 61.2571 41.1023C61.0185 40.7538 60.8991 40.3163 60.8991 39.7898V31.1818ZM69.8494 42.1761C69.0313 42.1761 68.3172 41.9886 67.7074 41.6136C67.0975 41.2386 66.6241 40.714 66.2869 40.0398C65.9498 39.3655 65.7812 38.5777 65.7812 37.6761C65.7812 36.7708 65.9498 35.9792 66.2869 35.3011C66.6241 34.6231 67.0975 34.0966 67.7074 33.7216C68.3172 33.3466 69.0313 33.1591 69.8494 33.1591C70.6676 33.1591 71.3816 33.3466 71.9915 33.7216C72.6013 34.0966 73.0748 34.6231 73.4119 35.3011C73.7491 35.9792 73.9176 36.7708 73.9176 37.6761C73.9176 38.5777 73.7491 39.3655 73.4119 40.0398C73.0748 40.714 72.6013 41.2386 71.9915 41.6136C71.3816 41.9886 70.6676 42.1761 69.8494 42.1761ZM69.8551 40.75C70.3854 40.75 70.8248 40.6098 71.1733 40.3295C71.5218 40.0492 71.7794 39.6761 71.946 39.2102C72.1165 38.7443 72.2017 38.2311 72.2017 37.6705C72.2017 37.1136 72.1165 36.6023 71.946 36.1364C71.7794 35.6667 71.5218 35.2898 71.1733 35.0057C70.8248 34.7216 70.3854 34.5795 69.8551 34.5795C69.321 34.5795 68.8778 34.7216 68.5256 35.0057C68.1771 35.2898 67.9176 35.6667 67.7472 36.1364C67.5805 36.6023 67.4972 37.1136 67.4972 37.6705C67.4972 38.2311 67.5805 38.7443 67.7472 39.2102C67.9176 39.6761 68.1771 40.0492 68.5256 40.3295C68.8778 40.6098 69.321 40.75 69.8551 40.75ZM77.5128 36.8182V42H75.8139V33.2727H77.4446V34.6932H77.5526C77.7533 34.2311 78.0677 33.8598 78.4957 33.5795C78.9276 33.2992 79.4711 33.1591 80.1264 33.1591C80.7211 33.1591 81.242 33.2841 81.6889 33.5341C82.1359 33.7803 82.4825 34.1477 82.7287 34.6364C82.9749 35.125 83.098 35.7292 83.098 36.4489V42H81.3991V36.6534C81.3991 36.0208 81.2344 35.5265 80.9048 35.1705C80.5753 34.8106 80.1226 34.6307 79.5469 34.6307C79.1529 34.6307 78.8026 34.7159 78.4957 34.8864C78.1927 35.0568 77.9522 35.3068 77.7741 35.6364C77.5999 35.9621 77.5128 36.3561 77.5128 36.8182ZM97.2301 30.3636H98.9915V38.017C98.9915 38.8314 98.8002 39.553 98.4176 40.1818C98.035 40.8068 97.4972 41.2992 96.804 41.6591C96.1108 42.0152 95.2983 42.1932 94.3665 42.1932C93.4384 42.1932 92.6278 42.0152 91.9347 41.6591C91.2415 41.2992 90.7036 40.8068 90.321 40.1818C89.9384 39.553 89.7472 38.8314 89.7472 38.017V30.3636H91.5028V37.875C91.5028 38.4015 91.6184 38.8693 91.8494 39.2784C92.0843 39.6875 92.4157 40.0095 92.8438 40.2443C93.2718 40.4754 93.7794 40.5909 94.3665 40.5909C94.9574 40.5909 95.4669 40.4754 95.8949 40.2443C96.3267 40.0095 96.6563 39.6875 96.8835 39.2784C97.1146 38.8693 97.2301 38.4015 97.2301 37.875V30.3636ZM103.107 36.8182V42H101.408V33.2727H103.038V34.6932H103.146C103.347 34.2311 103.661 33.8598 104.089 33.5795C104.521 33.2992 105.065 33.1591 105.72 33.1591C106.315 33.1591 106.836 33.2841 107.283 33.5341C107.73 33.7803 108.076 34.1477 108.322 34.6364C108.569 35.125 108.692 35.7292 108.692 36.4489V42H106.993V36.6534C106.993 36.0208 106.828 35.5265 106.499 35.1705C106.169 34.8106 105.716 34.6307 105.141 34.6307C104.747 34.6307 104.396 34.7159 104.089 34.8864C103.786 35.0568 103.546 35.3068 103.368 35.6364C103.194 35.9621 103.107 36.3561 103.107 36.8182ZM110.97 42V33.2727H112.669V42H110.97ZM111.828 31.9261C111.533 31.9261 111.279 31.8277 111.067 31.6307C110.858 31.4299 110.754 31.1913 110.754 30.9148C110.754 30.6345 110.858 30.3958 111.067 30.1989C111.279 29.9981 111.533 29.8977 111.828 29.8977C112.124 29.8977 112.375 29.9981 112.584 30.1989C112.796 30.3958 112.902 30.6345 112.902 30.9148C112.902 31.1913 112.796 31.4299 112.584 31.6307C112.375 31.8277 112.124 31.9261 111.828 31.9261ZM122.42 33.2727L119.256 42H117.438L114.267 33.2727H116.091L118.301 39.9886H118.392L120.597 33.2727H122.42ZM127.482 42.1761C126.622 42.1761 125.881 41.9924 125.26 41.625C124.643 41.2538 124.165 40.733 123.828 40.0625C123.495 39.3883 123.328 38.5985 123.328 37.6932C123.328 36.7992 123.495 36.0114 123.828 35.3295C124.165 34.6477 124.635 34.1155 125.237 33.733C125.843 33.3504 126.552 33.1591 127.362 33.1591C127.855 33.1591 128.332 33.2405 128.794 33.4034C129.256 33.5663 129.671 33.822 130.038 34.1705C130.406 34.5189 130.696 34.9716 130.908 35.5284C131.12 36.0814 131.226 36.7538 131.226 37.5455V38.1477H124.288V36.875H129.561C129.561 36.428 129.47 36.0322 129.288 35.6875C129.107 35.339 128.851 35.0644 128.521 34.8636C128.196 34.6629 127.813 34.5625 127.374 34.5625C126.896 34.5625 126.48 34.6799 126.124 34.9148C125.771 35.1458 125.499 35.4489 125.305 35.8239C125.116 36.1951 125.021 36.5985 125.021 37.0341V38.0284C125.021 38.6117 125.124 39.108 125.328 39.517C125.536 39.9261 125.826 40.2386 126.197 40.4545C126.569 40.6667 127.002 40.7727 127.499 40.7727C127.821 40.7727 128.114 40.7273 128.379 40.6364C128.644 40.5417 128.874 40.4015 129.067 40.2159C129.26 40.0303 129.408 39.8011 129.51 39.5284L131.118 39.8182C130.989 40.2917 130.758 40.7064 130.425 41.0625C130.095 41.4148 129.68 41.6894 129.18 41.8864C128.684 42.0795 128.118 42.1761 127.482 42.1761ZM133.111 42V33.2727H134.753V34.6591H134.844C135.003 34.1894 135.283 33.8201 135.685 33.5511C136.09 33.2784 136.548 33.142 137.06 33.142C137.166 33.142 137.291 33.1458 137.435 33.1534C137.582 33.161 137.698 33.1705 137.781 33.1818V34.8068C137.713 34.7879 137.592 34.767 137.418 34.7443C137.243 34.7178 137.069 34.7045 136.895 34.7045C136.493 34.7045 136.135 34.7898 135.821 34.9602C135.51 35.1269 135.264 35.3598 135.082 35.6591C134.901 35.9545 134.81 36.2917 134.81 36.6705V42H133.111ZM145.791 35.4034L144.251 35.6761C144.187 35.4792 144.085 35.2917 143.945 35.1136C143.808 34.9356 143.623 34.7898 143.388 34.6761C143.153 34.5625 142.859 34.5057 142.507 34.5057C142.026 34.5057 141.625 34.6136 141.303 34.8295C140.981 35.0417 140.82 35.3163 140.82 35.6534C140.82 35.9451 140.928 36.1799 141.143 36.358C141.359 36.536 141.708 36.6818 142.189 36.7955L143.575 37.1136C144.378 37.2992 144.977 37.5852 145.371 37.9716C145.765 38.358 145.962 38.8598 145.962 39.4773C145.962 40 145.81 40.4659 145.507 40.875C145.208 41.2803 144.789 41.5985 144.251 41.8295C143.717 42.0606 143.098 42.1761 142.393 42.1761C141.416 42.1761 140.619 41.9678 140.001 41.5511C139.384 41.1307 139.005 40.5341 138.865 39.7614L140.507 39.5114C140.609 39.9394 140.82 40.2633 141.138 40.483C141.456 40.6989 141.871 40.8068 142.382 40.8068C142.939 40.8068 143.384 40.6913 143.717 40.4602C144.051 40.2254 144.217 39.9394 144.217 39.6023C144.217 39.3295 144.115 39.1004 143.911 38.9148C143.71 38.7292 143.401 38.589 142.984 38.4943L141.507 38.1705C140.693 37.9848 140.09 37.6894 139.7 37.2841C139.314 36.8788 139.121 36.3655 139.121 35.7443C139.121 35.2292 139.265 34.7784 139.553 34.392C139.84 34.0057 140.238 33.7045 140.746 33.4886C141.253 33.2689 141.835 33.1591 142.49 33.1591C143.433 33.1591 144.176 33.3636 144.717 33.7727C145.259 34.178 145.617 34.7216 145.791 35.4034ZM147.83 42V33.2727H149.528V42H147.83ZM148.688 31.9261C148.392 31.9261 148.138 31.8277 147.926 31.6307C147.718 31.4299 147.614 31.1913 147.614 30.9148C147.614 30.6345 147.718 30.3958 147.926 30.1989C148.138 29.9981 148.392 29.8977 148.688 29.8977C148.983 29.8977 149.235 29.9981 149.443 30.1989C149.655 30.3958 149.761 30.6345 149.761 30.9148C149.761 31.1913 149.655 31.4299 149.443 31.6307C149.235 31.8277 148.983 31.9261 148.688 31.9261ZM155.888 33.2727V34.6364H151.121V33.2727H155.888ZM152.399 31.1818H154.098V39.4375C154.098 39.767 154.147 40.0152 154.246 40.1818C154.344 40.3447 154.471 40.4564 154.626 40.517C154.786 40.5739 154.958 40.6023 155.143 40.6023C155.28 40.6023 155.399 40.5928 155.501 40.5739C155.604 40.5549 155.683 40.5398 155.74 40.5284L156.047 41.9318C155.948 41.9697 155.808 42.0076 155.626 42.0455C155.445 42.0871 155.217 42.1098 154.945 42.1136C154.498 42.1212 154.081 42.0417 153.695 41.875C153.308 41.7083 152.996 41.4508 152.757 41.1023C152.518 40.7538 152.399 40.3163 152.399 39.7898V31.1818ZM158.841 45.2727C158.587 45.2727 158.356 45.2519 158.148 45.2102C157.939 45.1723 157.784 45.1307 157.682 45.0852L158.091 43.6932C158.402 43.7765 158.678 43.8125 158.92 43.8011C159.163 43.7898 159.377 43.6989 159.562 43.5284C159.752 43.358 159.919 43.0795 160.062 42.6932L160.273 42.1136L157.08 33.2727H158.898L161.108 40.0455H161.199L163.409 33.2727H165.233L161.636 43.1648C161.47 43.6193 161.258 44.0038 161 44.3182C160.742 44.6364 160.436 44.875 160.08 45.0341C159.723 45.1932 159.311 45.2727 158.841 45.2727ZM171.558 36.1818C171.558 34.7576 171.746 33.447 172.121 32.25C172.496 31.053 173.043 29.9489 173.763 28.9375H175.32C175.039 29.3125 174.778 29.7727 174.536 30.3182C174.293 30.8636 174.081 31.4621 173.899 32.1136C173.717 32.7614 173.575 33.4337 173.473 34.1307C173.371 34.8239 173.32 35.5076 173.32 36.1818C173.32 37.0833 173.409 37.9962 173.587 38.9205C173.765 39.8447 174.005 40.7027 174.308 41.4943C174.611 42.286 174.948 42.9318 175.32 43.4318H173.763C173.043 42.4205 172.496 41.3163 172.121 40.1193C171.746 38.9223 171.558 37.6098 171.558 36.1818ZM177.247 42V30.3636H179.003V40.4886H184.276V42H177.247ZM189.818 42.1761C189 42.1761 188.286 41.9886 187.676 41.6136C187.066 41.2386 186.593 40.714 186.256 40.0398C185.919 39.3655 185.75 38.5777 185.75 37.6761C185.75 36.7708 185.919 35.9792 186.256 35.3011C186.593 34.6231 187.066 34.0966 187.676 33.7216C188.286 33.3466 189 33.1591 189.818 33.1591C190.636 33.1591 191.35 33.3466 191.96 33.7216C192.57 34.0966 193.044 34.6231 193.381 35.3011C193.718 35.9792 193.886 36.7708 193.886 37.6761C193.886 38.5777 193.718 39.3655 193.381 40.0398C193.044 40.714 192.57 41.2386 191.96 41.6136C191.35 41.9886 190.636 42.1761 189.818 42.1761ZM189.824 40.75C190.354 40.75 190.794 40.6098 191.142 40.3295C191.491 40.0492 191.748 39.6761 191.915 39.2102C192.085 38.7443 192.17 38.2311 192.17 37.6705C192.17 37.1136 192.085 36.6023 191.915 36.1364C191.748 35.6667 191.491 35.2898 191.142 35.0057C190.794 34.7216 190.354 34.5795 189.824 34.5795C189.29 34.5795 188.847 34.7216 188.494 35.0057C188.146 35.2898 187.886 35.6667 187.716 36.1364C187.549 36.6023 187.466 37.1136 187.466 37.6705C187.466 38.2311 187.549 38.7443 187.716 39.2102C187.886 39.6761 188.146 40.0492 188.494 40.3295C188.847 40.6098 189.29 40.75 189.824 40.75ZM197.482 36.8182V42H195.783V33.2727H197.413V34.6932H197.521C197.722 34.2311 198.036 33.8598 198.464 33.5795C198.896 33.2992 199.44 33.1591 200.095 33.1591C200.69 33.1591 201.211 33.2841 201.658 33.5341C202.105 33.7803 202.451 34.1477 202.697 34.6364C202.944 35.125 203.067 35.7292 203.067 36.4489V42H201.368V36.6534C201.368 36.0208 201.203 35.5265 200.874 35.1705C200.544 34.8106 200.091 34.6307 199.516 34.6307C199.122 34.6307 198.771 34.7159 198.464 34.8864C198.161 35.0568 197.921 35.3068 197.743 35.6364C197.569 35.9621 197.482 36.3561 197.482 36.8182ZM208.612 42.1705C207.908 42.1705 207.279 41.9905 206.726 41.6307C206.177 41.267 205.745 40.75 205.43 40.0795C205.12 39.4053 204.964 38.5966 204.964 37.6534C204.964 36.7102 205.122 35.9034 205.436 35.233C205.754 34.5625 206.19 34.0492 206.743 33.6932C207.296 33.3371 207.923 33.1591 208.624 33.1591C209.165 33.1591 209.601 33.25 209.93 33.4318C210.264 33.6098 210.521 33.8182 210.703 34.0568C210.889 34.2955 211.033 34.5057 211.135 34.6875H211.237V30.3636H212.936V42H211.277V40.642H211.135C211.033 40.8277 210.885 41.0398 210.692 41.2784C210.502 41.517 210.241 41.7254 209.908 41.9034C209.574 42.0814 209.143 42.1705 208.612 42.1705ZM208.987 40.7216C209.476 40.7216 209.889 40.5928 210.226 40.3352C210.567 40.0739 210.824 39.7121 210.999 39.25C211.177 38.7879 211.266 38.25 211.266 37.6364C211.266 37.0303 211.179 36.5 211.004 36.0455C210.83 35.5909 210.574 35.2367 210.237 34.983C209.9 34.7292 209.483 34.6023 208.987 34.6023C208.476 34.6023 208.05 34.7348 207.709 35C207.368 35.2652 207.11 35.6269 206.936 36.0852C206.766 36.5436 206.68 37.0606 206.68 37.6364C206.68 38.2197 206.768 38.7443 206.942 39.2102C207.116 39.6761 207.374 40.0455 207.714 40.3182C208.059 40.5871 208.483 40.7216 208.987 40.7216ZM219.037 42.1761C218.219 42.1761 217.505 41.9886 216.895 41.6136C216.285 41.2386 215.812 40.714 215.474 40.0398C215.137 39.3655 214.969 38.5777 214.969 37.6761C214.969 36.7708 215.137 35.9792 215.474 35.3011C215.812 34.6231 216.285 34.0966 216.895 33.7216C217.505 33.3466 218.219 33.1591 219.037 33.1591C219.855 33.1591 220.569 33.3466 221.179 33.7216C221.789 34.0966 222.262 34.6231 222.599 35.3011C222.937 35.9792 223.105 36.7708 223.105 37.6761C223.105 38.5777 222.937 39.3655 222.599 40.0398C222.262 40.714 221.789 41.2386 221.179 41.6136C220.569 41.9886 219.855 42.1761 219.037 42.1761ZM219.043 40.75C219.573 40.75 220.012 40.6098 220.361 40.3295C220.709 40.0492 220.967 39.6761 221.134 39.2102C221.304 38.7443 221.389 38.2311 221.389 37.6705C221.389 37.1136 221.304 36.6023 221.134 36.1364C220.967 35.6667 220.709 35.2898 220.361 35.0057C220.012 34.7216 219.573 34.5795 219.043 34.5795C218.509 34.5795 218.065 34.7216 217.713 35.0057C217.365 35.2898 217.105 35.6667 216.935 36.1364C216.768 36.6023 216.685 37.1136 216.685 37.6705C216.685 38.2311 216.768 38.7443 216.935 39.2102C217.105 39.6761 217.365 40.0492 217.713 40.3295C218.065 40.6098 218.509 40.75 219.043 40.75ZM226.7 36.8182V42H225.001V33.2727H226.632V34.6932H226.74C226.941 34.2311 227.255 33.8598 227.683 33.5795C228.115 33.2992 228.659 33.1591 229.314 33.1591C229.909 33.1591 230.429 33.2841 230.876 33.5341C231.323 33.7803 231.67 34.1477 231.916 34.6364C232.162 35.125 232.286 35.7292 232.286 36.4489V42H230.587V36.6534C230.587 36.0208 230.422 35.5265 230.092 35.1705C229.763 34.8106 229.31 34.6307 228.734 34.6307C228.34 34.6307 227.99 34.7159 227.683 34.8864C227.38 35.0568 227.14 35.3068 226.962 35.6364C226.787 35.9621 226.7 36.3561 226.7 36.8182ZM237.831 37.1705C237.831 38.5985 237.643 39.911 237.268 41.108C236.893 42.3049 236.346 43.4091 235.626 44.4205H234.07C234.35 44.0455 234.611 43.5852 234.854 43.0398C235.096 42.4943 235.308 41.8977 235.49 41.25C235.672 40.5985 235.814 39.9242 235.916 39.2273C236.018 38.5303 236.07 37.8447 236.07 37.1705C236.07 36.2727 235.981 35.3617 235.803 34.4375C235.625 33.5133 235.384 32.6553 235.081 31.8636C234.778 31.072 234.441 30.4261 234.07 29.9261H235.626C236.346 30.9375 236.893 32.0417 237.268 33.2386C237.643 34.4356 237.831 35.7462 237.831 37.1705Z" fill="#212124"/>
</svg>
