<svg width="97" height="51" viewBox="0 0 97 51" fill="none" xmlns="http://www.w3.org/2000/svg">
<rect x="6.0777" width="92" height="35" rx="16" transform="rotate(10 6.0777 0)" fill="#FFE852"/>
<path d="M30.0644 21.6764C29.8487 22.8999 29.4394 23.9124 28.8365 24.7138C28.2343 25.5115 27.5016 26.0785 26.6384 26.4148C25.7796 26.748 24.856 26.8275 23.8674 26.6532C22.8751 26.4782 22.0306 26.087 21.3339 25.4795C20.6415 24.8689 20.1491 24.084 19.8567 23.1247C19.5643 22.1654 19.5256 21.0758 19.7407 19.856C19.9565 18.6325 20.3654 17.6219 20.9676 16.8242C21.5705 16.0227 22.3013 15.4554 23.1601 15.1222C24.0233 14.7859 24.951 14.7053 25.9433 14.8802C26.9318 15.0545 27.7723 15.447 28.4647 16.0575C29.1614 16.665 29.656 17.4484 29.9484 18.4077C30.2415 19.3633 30.2802 20.4528 30.0644 21.6764ZM28.3522 21.3745C28.5166 20.4419 28.504 19.63 28.3143 18.9388C28.129 18.2446 27.8042 17.6873 27.3398 17.267C26.8799 16.8435 26.3216 16.5739 25.6651 16.4582C25.0048 16.3417 24.3861 16.4038 23.8091 16.6444C23.2327 16.8812 22.7368 17.2938 22.3215 17.8822C21.9106 18.4674 21.623 19.2263 21.4585 20.1589C21.2941 21.0915 21.3045 21.9049 21.4898 22.5992C21.6795 23.2903 22.0043 23.8476 22.4643 24.2711C22.9249 24.6907 23.4854 24.9588 24.1456 25.0752C24.8022 25.191 25.4187 25.1305 25.9951 24.8936C26.5758 24.6537 27.0717 24.2411 27.4826 23.6558C27.8979 23.0675 28.1877 22.307 28.3522 21.3745ZM37.7854 23.7705L37.5299 25.2198L32.8744 24.3989L33.1299 22.9496L37.7854 23.7705ZM34.2304 19.457L32.7149 28.0517L31.0755 27.7626L32.5909 19.1679L34.2304 19.457ZM39.5853 20.4012L38.0698 28.9959L36.436 28.7078L37.9514 20.1131L39.5853 20.4012ZM39.631 29.2712L39.8809 27.8209L40.1887 27.8752C40.4274 27.9173 40.6359 27.9021 40.814 27.8297C40.9966 27.7542 41.1618 27.6025 41.3097 27.3748C41.4575 27.147 41.5976 26.8217 41.7298 26.3988C41.8627 25.9722 42.0005 25.4311 42.143 24.7754L42.965 20.9971L48.9634 22.0548L47.4479 30.6495L45.8084 30.3604L47.0693 23.2094L44.2604 22.7141L43.6111 25.6112C43.4525 26.3141 43.2706 26.9205 43.0653 27.4305C42.8637 27.9411 42.6272 28.3552 42.3558 28.6727C42.0851 28.9866 41.7702 29.2022 41.411 29.3196C41.0524 29.4333 40.6382 29.4488 40.1682 29.3659L39.631 29.2712ZM52.1467 31.6742C51.6021 31.5782 51.1275 31.3906 50.7228 31.1116C50.3188 30.8288 50.0223 30.4707 49.8333 30.0374C49.6481 29.6047 49.6051 29.1067 49.7044 28.5434C49.7899 28.0585 49.9536 27.6758 50.1953 27.3953C50.4371 27.1149 50.7326 26.9112 51.082 26.7843C51.4313 26.6574 51.81 26.5819 52.2181 26.5577C52.6262 26.5335 53.0379 26.533 53.453 26.5562C53.9784 26.5873 54.4047 26.6125 54.7321 26.6317C55.0601 26.6473 55.3048 26.6231 55.4661 26.5592C55.6273 26.4954 55.7257 26.3627 55.7612 26.1613L55.7681 26.1221C55.8543 25.6334 55.783 25.2305 55.5544 24.9132C55.3294 24.5966 54.9465 24.3906 54.4056 24.2952C53.8423 24.1959 53.3764 24.2426 53.0077 24.4353C52.6435 24.6249 52.3732 24.86 52.1968 25.1404L50.6877 24.5051C50.9663 24.0157 51.3129 23.6422 51.7276 23.3846C52.1466 23.1238 52.604 22.9621 53.0997 22.8995C53.596 22.8332 54.1035 22.8458 54.622 22.9372C54.9652 22.9977 55.3216 23.1029 55.6914 23.2527C56.0655 23.3994 56.4017 23.6087 56.7 23.8805C57.0019 24.153 57.2262 24.506 57.3729 24.9396C57.5202 25.3694 57.5385 25.8977 57.428 26.5244L56.4217 32.2318L54.7878 31.9437L54.995 30.7687L54.9278 30.7568C54.7815 30.9541 54.5817 31.1381 54.3286 31.3089C54.0754 31.4796 53.7669 31.6041 53.4031 31.6822C53.0393 31.7604 52.6205 31.7577 52.1467 31.6742ZM52.7472 30.3954C53.2098 30.477 53.6213 30.4553 53.9818 30.3304C54.3461 30.2061 54.64 30.0118 54.8635 29.7474C55.0915 29.4798 55.2354 29.1764 55.2952 28.8369L55.4906 27.729C55.4204 27.7782 55.2949 27.8137 55.1141 27.8357C54.9376 27.8546 54.738 27.8636 54.515 27.8628C54.2927 27.8582 54.0764 27.8527 53.866 27.8464C53.6562 27.8363 53.4806 27.8285 53.3393 27.8228C53.0076 27.8066 52.6988 27.8233 52.4131 27.8729C52.1312 27.9232 51.8939 28.0256 51.7013 28.1801C51.513 28.3315 51.3926 28.5565 51.34 28.8549C51.2669 29.269 51.3646 29.6093 51.633 29.8758C51.9021 30.1387 52.2735 30.3119 52.7472 30.3954ZM60.703 30.5693L65.5932 24.9871L67.3949 25.3048L65.8795 33.8995L64.24 33.6104L65.343 27.3546L60.4686 32.9454L58.6501 32.6247L60.1656 24.0301L61.805 24.3191L60.703 30.5693ZM65.39 21.9511L66.7665 22.1939C66.6554 22.8243 66.3411 23.2977 65.8237 23.6142C65.3108 23.9276 64.6756 24.0176 63.9184 23.8841C63.1649 23.7512 62.6007 23.4498 62.2258 22.9798C61.8516 22.5061 61.7201 21.9541 61.8313 21.3236L63.2022 21.5654C63.1528 21.8451 63.1912 22.1077 63.3172 22.353C63.4438 22.5946 63.7067 22.7505 64.1058 22.8209C64.4975 22.89 64.796 22.833 65.0014 22.65C65.2105 22.4676 65.34 22.2346 65.39 21.9511ZM74.8388 30.304L74.5832 31.7533L69.9278 30.9324L70.1833 29.4831L74.8388 30.304ZM71.2838 25.9905L69.7683 34.5852L68.1289 34.2961L69.6443 25.7014L71.2838 25.9905ZM76.6387 26.9347L75.1232 35.5294L73.4893 35.2413L75.0048 26.6466L76.6387 26.9347Z" fill="#212124"/>
</svg>
