<svg width="44" height="44" viewBox="0 0 44 44" fill="none" xmlns="http://www.w3.org/2000/svg">
<rect width="44" height="44" rx="22" fill="#FFE852"/>
<path d="M17 19C16.4477 19 16 19.4477 16 20C16 20.5523 16.4477 21 17 21V19ZM23 21C23.5523 21 24 20.5523 24 20C24 19.4477 23.5523 19 23 19V21ZM21 17C21 16.4477 20.5523 16 20 16C19.4477 16 19 16.4477 19 17H21ZM19 23C19 23.5523 19.4477 24 20 24C20.5523 24 21 23.5523 21 23H19ZM25.7071 24.2929C25.3166 23.9024 24.6834 23.9024 24.2929 24.2929C23.9024 24.6834 23.9024 25.3166 24.2929 25.7071L25.7071 24.2929ZM30.2929 31.7071C30.6834 32.0976 31.3166 32.0976 31.7071 31.7071C32.0976 31.3166 32.0976 30.6834 31.7071 30.2929L30.2929 31.7071ZM17 21H23V19H17V21ZM19 17V23H21V17H19ZM20 26C16.6863 26 14 23.3137 14 20H12C12 24.4183 15.5817 28 20 28V26ZM14 20C14 16.6863 16.6863 14 20 14V12C15.5817 12 12 15.5817 12 20H14ZM20 14C23.3137 14 26 16.6863 26 20H28C28 15.5817 24.4183 12 20 12V14ZM26 20C26 23.3137 23.3137 26 20 26V28C24.4183 28 28 24.4183 28 20H26ZM24.2929 25.7071L30.2929 31.7071L31.7071 30.2929L25.7071 24.2929L24.2929 25.7071Z" fill="#212124"/>
</svg>
